<svg width="35" height="24" viewBox="0 0 35 24" fill="none" xmlns="http://www.w3.org/2000/svg">
<g id="Kenya (KE)" clip-path="url(#clip0_62_4278)">
<path id="Vector" d="M0 0H35V24H0V0Z" fill="white"/>
<path id="Vector_2" d="M0 0H35V7.2H0V0Z" fill="#000001"/>
<path id="Vector_3" d="M0 16.8H35V24H0V16.8Z" fill="#006600"/>
<g id="b">
<path id="Vector_4" d="M12.8076 19.125L13.1029 19.275L20.7646 7.125C21.2076 7.035 21.4537 6.645 21.6998 6.255C21.8639 5.985 22.5201 4.95 22.799 3.6C22.0207 4.23238 21.3611 4.97729 20.8467 5.805C20.6006 6.195 20.3545 6.585 20.4693 6.99L12.8076 19.125Z" fill="black" stroke="black" stroke-width="0.375"/>
<path id="Vector_5" d="M12.8076 19.125L13.1029 19.275L20.7646 7.125C21.2076 7.035 21.4537 6.645 21.6998 6.255C21.8639 5.985 22.5201 4.95 22.799 3.6C22.0207 4.23238 21.3611 4.97729 20.8467 5.805C20.6006 6.195 20.3545 6.585 20.4693 6.99L12.8076 19.125Z" fill="white"/>
</g>
<g id="b_2">
<path id="Vector_6" d="M22.1924 19.125L21.8971 19.275L14.2354 7.125C13.7924 7.035 13.5463 6.645 13.3002 6.255C13.1361 5.985 12.4799 4.95 12.201 3.6C12.9793 4.23238 13.6389 4.97729 14.1533 5.805C14.3994 6.195 14.6455 6.585 14.5307 6.99L22.1924 19.125Z" fill="black" stroke="black" stroke-width="0.375"/>
<path id="Vector_7" d="M22.1924 19.125L21.8971 19.275L14.2354 7.125C13.7924 7.035 13.5463 6.645 13.3002 6.255C13.1361 5.985 12.4799 4.95 12.201 3.6C12.9793 4.23238 13.6389 4.97729 14.1533 5.805C14.3994 6.195 14.6455 6.585 14.5307 6.99L22.1924 19.125Z" fill="white"/>
</g>
<path id="Vector_8" d="M35.0275 8.4H20.6174C20.1252 7.2 18.4846 4.8 17.5002 4.8C16.5158 4.8 14.8752 7.2 14.383 8.4H-0.0107422V15.6H14.383C14.8752 16.8 16.5158 19.2 17.5002 19.2C18.4846 19.2 20.1252 16.8 20.6174 15.6H35.0275V8.4Z" fill="#BB0000"/>
<path id="c" d="M20.6172 15.6C21.1094 14.4 21.4375 13.2 21.4375 12C21.4375 10.8 21.1094 9.6 20.6172 8.4C20.125 9.6 19.7969 10.8 19.7969 12C19.7969 13.2 20.125 14.4 20.6172 15.6Z" fill="black"/>
<path id="c_2" d="M14.3828 15.6C13.8906 14.4 13.5625 13.2 13.5625 12C13.5625 10.8 13.8906 9.6 14.3828 8.4C14.875 9.6 15.2031 10.8 15.2031 12C15.2031 13.2 14.875 14.4 14.3828 15.6Z" fill="black"/>
<g id="Group">
<path id="Vector_9" d="M17.5 12.9C17.8624 12.9 18.1562 12.4971 18.1562 12C18.1562 11.5029 17.8624 11.1 17.5 11.1C17.1376 11.1 16.8438 11.5029 16.8438 12C16.8438 12.4971 17.1376 12.9 17.5 12.9Z" fill="white"/>
<path id="d" d="M17.6641 12.87C17.6641 12.87 18.3203 14.07 18.3203 16.02C18.3203 17.97 17.6641 19.17 17.6641 19.17V12.87Z" fill="white"/>
<path id="d_2" d="M17.3359 11.13C17.3359 11.13 16.6797 9.93 16.6797 7.98C16.6797 6.03 17.3359 4.83 17.3359 4.83V11.13Z" fill="white"/>
<path id="d_3" d="M17.3359 12.87C17.3359 12.87 16.6797 14.07 16.6797 16.02C16.6797 17.97 17.3359 19.17 17.3359 19.17V12.87Z" fill="white"/>
<path id="d_4" d="M17.6641 11.13C17.6641 11.13 18.3203 9.93 18.3203 7.98C18.3203 6.03 17.6641 4.83 17.6641 4.83V11.13Z" fill="white"/>
</g>
</g>
<defs>
<clipPath id="clip0_62_4278">
<rect width="35" height="24" fill="white"/>
</clipPath>
</defs>
</svg>
