<svg width="33" height="32" viewBox="0 0 33 32" fill="none" xmlns="http://www.w3.org/2000/svg">
<circle cx="16.5" cy="16" r="16" fill="#F9FAFB"/>
<path d="M12.0591 23.6797V22.0888L16.981 16.9893C17.5066 16.4354 17.9398 15.95 18.2807 15.5334C18.6264 15.112 18.8844 14.7119 19.0549 14.3331C19.2253 13.9543 19.3105 13.5518 19.3105 13.1257C19.3105 12.6428 19.1969 12.2261 18.9696 11.8757C18.7424 11.5206 18.4322 11.2483 18.0392 11.0589C17.6462 10.8648 17.2035 10.7678 16.7111 10.7678C16.1903 10.7678 15.7357 10.8743 15.3475 11.0874C14.9592 11.3004 14.6609 11.6011 14.4526 11.9893C14.2443 12.3776 14.1401 12.8321 14.1401 13.353H12.0449C12.0449 12.4676 12.2485 11.6934 12.6557 11.0305C13.0629 10.3677 13.6216 9.85393 14.3318 9.48935C15.0421 9.12003 15.8494 8.93537 16.7537 8.93537C17.6675 8.93537 18.4725 9.11766 19.1685 9.48224C19.8693 9.84209 20.4161 10.3345 20.8091 10.9595C21.2021 11.5798 21.3986 12.2805 21.3986 13.0618C21.3986 13.6016 21.2968 14.1295 21.0932 14.6456C20.8943 15.1617 20.5463 15.737 20.0492 16.3714C19.552 17.0012 18.8607 17.7659 17.9753 18.6655L15.0847 21.6911V21.7976H21.633V23.6797H12.0591Z" fill="#414042"/>
</svg>
