<svg width="26" height="26" viewBox="0 0 26 26" fill="none" xmlns="http://www.w3.org/2000/svg">
<path d="M15.0719 19.4189C13.4469 19.4189 12.1469 20.7189 12.1469 22.3439C12.1469 23.9689 13.4469 25.2689 15.0719 25.2689C16.6969 25.2689 17.9969 23.9689 17.9969 22.3439C17.9969 20.7596 16.6563 19.4189 15.0719 19.4189ZM15.0719 23.4814C14.4625 23.4814 13.975 22.9939 13.975 22.3846C13.975 21.7752 14.4625 21.2877 15.0719 21.2877C15.6813 21.2877 16.1688 21.7752 16.1688 22.3846C16.1688 22.9533 15.6406 23.4814 15.0719 23.4814Z" fill="#9B51E0"/>
<path d="M7.35313 19.4189C5.72813 19.4189 4.42813 20.7189 4.42813 22.3439C4.42813 23.9689 5.72813 25.2689 7.35313 25.2689C8.97813 25.2689 10.2781 23.9689 10.2781 22.3439C10.2781 20.7596 8.93751 19.4189 7.35313 19.4189ZM7.35313 23.4814C6.74376 23.4814 6.25626 22.9939 6.25626 22.3846C6.25626 21.7752 6.74376 21.2877 7.35313 21.2877C7.96251 21.2877 8.45001 21.7752 8.45001 22.3846C8.45001 22.9533 7.96251 23.4814 7.35313 23.4814Z" fill="#9B51E0"/>
<path d="M23.6438 0.731445H21.45C20.475 0.731445 19.6219 1.4627 19.5 2.4377L18.85 7.10957H17.1438V4.14394C17.1031 3.41269 16.5344 2.84395 15.8438 2.84395H12.8375C12.7156 2.23457 12.1875 1.7877 11.5781 1.7877H8.04375C7.35312 1.7877 6.74375 2.39707 6.74375 3.16895V3.94082H3.77813C3.0875 3.94082 2.47813 4.50957 2.47813 5.15957V7.1502C2.15313 7.23144 1.90938 7.39394 1.70625 7.63769C1.4625 7.96269 1.34063 8.40957 1.4625 8.81582C1.4625 8.85645 1.4625 8.85645 1.4625 8.89707L3.98125 16.4939C4.14375 17.0627 4.67188 17.4689 5.28125 17.4689H16.4937C17.9969 17.4689 19.2969 16.3314 19.5 14.8283L21.2063 2.68145C21.2063 2.6002 21.2875 2.55957 21.3687 2.55957H23.5625C24.05 2.55957 24.4969 2.15332 24.4969 1.6252C24.4969 1.09707 24.1313 0.731445 23.6438 0.731445ZM15.275 7.10957H12.8375V4.67207H15.275V7.10957ZM8.6125 3.61582H11.05V4.14394V7.10957H8.6125V5.20019V3.61582ZM4.34688 5.72832H6.78438V7.10957H4.34688V5.72832ZM17.7531 14.5439C17.6719 15.1533 17.1438 15.6002 16.5344 15.6002H5.64688L3.45313 8.93769H18.5656L17.7531 14.5439Z" fill="#9B51E0"/>
</svg>
