<svg width="420" height="444" viewBox="0 0 420 444" fill="none" xmlns="http://www.w3.org/2000/svg">
<g clip-path="url(#clip0_62_4573)">
<path d="M387.86 88.35C392.47 86.42 395.75 81.66 395.77 76.06C395.8 68.72 390.25 62.75 383.37 62.72C376.49 62.69 370.89 68.61 370.86 75.95C370.84 81.6 374.14 86.41 378.8 88.35C359.63 91.24 360.5 112.07 360.5 112.07L405.83 112.28C405.83 112.28 406.86 91.22 387.86 88.35Z" fill="#F5F5F5"/>
<path d="M120.01 10.48L90.3798 0L61.0398 10.34C57.2898 12.08 54.0098 13.13 54.0098 16.56V33.67C54.0098 45.55 57.1698 57.32 63.6698 67.72C69.1398 76.47 77.6198 85.47 90.6598 91.2C102.65 87.36 111.6 77.14 117.08 68.39C123.58 58 126.74 46.22 126.74 34.34V18.96C126.74 14.06 124.1 11.67 120 10.49L120.01 10.48Z" fill="#F5F5F5"/>
<path d="M100.22 38.09C100.22 33.56 96.5498 29.89 92.0198 29.89C87.4898 29.89 83.8198 33.56 83.8198 38.09C83.8198 41.84 86.3498 44.97 89.7798 45.94V58.2H94.2598V45.94C97.6898 44.96 100.22 41.83 100.22 38.09Z" fill="#EBEBEB"/>
<path d="M371.93 169.05L376.98 171.78L374.71 175.58L369.61 172.57L369.7 178.18H365.34L365.39 172.52L360.29 175.58L358.06 171.78L363.11 169.05L358.06 166.27L360.29 162.47L365.39 165.53L365.34 159.87H369.7L369.61 165.53L374.71 162.47L376.98 166.27L371.93 169.05Z" fill="#E0E0E0"/>
<path d="M392.97 169.05L398.02 171.78L395.75 175.58L390.65 172.57L390.74 178.18H386.38L386.43 172.52L381.33 175.58L379.1 171.78L384.15 169.05L379.1 166.27L381.33 162.47L386.43 165.53L386.38 159.87H390.74L390.65 165.53L395.75 162.47L398.02 166.27L392.97 169.05Z" fill="#E0E0E0"/>
<path d="M414.01 169.05L419.06 171.78L416.79 175.58L411.69 172.57L411.78 178.18H407.42L407.47 172.52L402.37 175.58L400.14 171.78L405.19 169.05L400.14 166.27L402.37 162.47L407.47 165.53L407.42 159.87H411.78L411.69 165.53L416.79 162.47L419.06 166.27L414.01 169.05Z" fill="#E0E0E0"/>
<path d="M199.92 408.41V439.47H245.35H295.45V408.41H199.92Z" fill="#F5F5F5"/>
<path d="M195.92 399.73V408.41H298.79V399.73H245.35H195.92Z" fill="#EBEBEB"/>
<path d="M247.35 439.47H295.45V408.41H298.79V399.73H245.35V407.61L247.35 439.47Z" fill="#EBEBEB"/>
<path d="M232.65 413.42H213.28V418.1H232.65V413.42Z" fill="#E0E0E0"/>
<path d="M235.67 423.94H210.79V433.81H235.67V423.94Z" fill="white"/>
<path d="M214.62 368.71V399.77H260.04H310.15V368.71H214.62Z" fill="#F5F5F5"/>
<path d="M210.61 360.02V368.71H313.49V360.02H260.04H210.61Z" fill="#EBEBEB"/>
<path d="M262.05 399.77H310.15V368.71H313.49V360.02H260.04V367.9L262.05 399.77Z" fill="#EBEBEB"/>
<path d="M247.35 373.72H227.98V378.4H247.35V373.72Z" fill="#E0E0E0"/>
<path d="M250.37 384.24H225.49V394.11H250.37V384.24Z" fill="white"/>
<path d="M331.9 18.84H153.26C149.637 18.84 146.7 21.777 146.7 25.4V189.75C146.7 193.373 149.637 196.31 153.26 196.31H331.9C335.523 196.31 338.46 193.373 338.46 189.75V25.4C338.46 21.777 335.523 18.84 331.9 18.84Z" fill="white"/>
<path d="M331.9 196.31C331.9 196.31 332.06 196.29 332.37 196.27C332.68 196.25 333.15 196.18 333.74 196.01C334.33 195.83 335.05 195.52 335.78 194.97C336.51 194.42 337.26 193.63 337.77 192.54C338.34 191.46 338.45 190.09 338.4 188.6C338.4 187.11 338.4 185.47 338.39 183.7C338.39 180.16 338.38 176.07 338.37 171.47C338.35 153.06 338.32 126.44 338.29 93.5499C338.29 77.0999 338.27 59.0799 338.26 39.7399C338.26 34.9099 338.24 29.9999 338.23 24.9999C338.11 22.5799 336.44 20.2999 334.12 19.4599C332.97 18.9799 331.72 19.0599 330.43 19.0599C329.15 19.0599 327.87 19.0599 326.58 19.0599C316.28 19.0599 305.67 19.0599 294.8 19.0699C251.3 19.0699 203.48 19.0799 153.29 19.0899C151.78 19.0899 150.29 19.6399 149.15 20.6299C148.01 21.6099 147.24 23.0099 147.04 24.4899C146.94 25.2199 146.98 26.0099 146.97 26.7899V29.1199C146.97 30.6699 146.97 32.2299 146.97 33.7799C146.97 39.9799 146.97 46.1399 146.97 52.2499C146.97 64.4699 146.97 76.5199 146.97 88.3599C146.97 112.03 146.96 134.87 146.95 156.62C146.95 167.5 146.95 178.1 146.94 188.4C146.94 189.04 146.92 189.7 146.97 190.31C147.04 190.92 147.16 191.54 147.4 192.11C147.86 193.26 148.66 194.25 149.67 194.95C150.68 195.65 151.88 196.04 153.1 196.07C154.36 196.07 155.61 196.07 156.86 196.08C161.86 196.08 166.78 196.08 171.61 196.08C190.95 196.09 208.97 196.1 225.42 196.11C258.31 196.15 284.93 196.17 303.34 196.19C312.53 196.21 319.67 196.23 324.52 196.24C326.94 196.25 328.78 196.26 330.03 196.27C331.27 196.27 331.91 196.3 331.91 196.3C331.91 196.3 331.27 196.32 330.03 196.33C328.78 196.33 326.94 196.34 324.52 196.36C319.67 196.37 312.53 196.39 303.34 196.41C284.94 196.43 258.32 196.46 225.42 196.49C208.97 196.49 190.95 196.51 171.61 196.52C166.77 196.52 161.86 196.52 156.86 196.52C155.61 196.52 154.35 196.52 153.09 196.52C151.79 196.49 150.49 196.07 149.41 195.32C148.33 194.57 147.47 193.51 146.98 192.28C146.72 191.67 146.59 191.01 146.52 190.35C146.47 189.68 146.5 189.05 146.49 188.4C146.49 178.1 146.49 167.49 146.48 156.62C146.48 134.87 146.48 112.04 146.46 88.3599C146.46 76.5199 146.46 64.4799 146.46 52.2499C146.46 46.1399 146.46 39.9799 146.46 33.7799C146.46 32.2299 146.46 30.6799 146.46 29.1199V26.7899C146.46 26.0099 146.42 25.2399 146.54 24.4199C146.76 22.8099 147.58 21.2899 148.82 20.2399C150.05 19.1699 151.67 18.5699 153.3 18.5699C203.49 18.5699 251.31 18.5799 294.81 18.5899C305.68 18.5899 316.29 18.5899 326.59 18.5999C327.88 18.5999 329.16 18.5999 330.44 18.5999C331.69 18.5999 333.06 18.5199 334.29 19.0399C336.77 19.9399 338.56 22.3799 338.68 24.9699C338.68 29.9699 338.68 34.8899 338.69 39.7299C338.68 59.0699 338.67 77.0899 338.66 93.5399C338.63 126.43 338.6 153.06 338.58 171.46C338.58 176.06 338.56 180.14 338.56 183.69C338.56 185.46 338.56 187.09 338.55 188.59C338.6 190.07 338.47 191.49 337.89 192.58C337.37 193.69 336.6 194.49 335.86 195.03C335.11 195.58 334.38 195.88 333.79 196.05C333.19 196.21 332.72 196.27 332.4 196.28C332.09 196.29 331.93 196.29 331.93 196.29L331.9 196.31Z" fill="#263238"/>
<path d="M161.17 31.1399C161.17 32.9699 159.69 34.4499 157.85 34.4499C156.01 34.4499 154.54 32.9699 154.54 31.1399C154.54 29.3099 156.02 27.8199 157.85 27.8199C159.68 27.8199 161.17 29.2999 161.17 31.1399Z" fill="#263238"/>
<path d="M167.54 34.45C169.368 34.45 170.85 32.968 170.85 31.14C170.85 29.3119 169.368 27.83 167.54 27.83C165.712 27.83 164.23 29.3119 164.23 31.14C164.23 32.968 165.712 34.45 167.54 34.45Z" fill="#263238"/>
<path d="M177.22 34.45C179.048 34.45 180.53 32.968 180.53 31.14C180.53 29.3119 179.048 27.83 177.22 27.83C175.392 27.83 173.91 29.3119 173.91 31.14C173.91 32.968 175.392 34.45 177.22 34.45Z" fill="#263238"/>
<path d="M338.46 40.5499C338.46 40.6899 295.53 40.8099 242.59 40.8099C189.65 40.8099 146.71 40.6899 146.71 40.5499C146.71 40.4099 189.63 40.2899 242.59 40.2899C295.55 40.2899 338.46 40.4099 338.46 40.5499Z" fill="#263238"/>
<path d="M269.66 107.4C269.66 107.4 269.74 107.29 269.89 107.09C269.93 107.04 269.97 106.98 270.02 106.92C270.06 106.85 270.1 106.78 270.15 106.7C270.24 106.54 270.36 106.35 270.44 106.12C270.49 106.01 270.54 105.89 270.59 105.76C270.63 105.63 270.67 105.49 270.71 105.34C270.76 105.19 270.78 105.04 270.81 104.87C270.83 104.7 270.88 104.54 270.88 104.35C270.96 103.63 270.91 102.79 270.77 101.86C270.48 99.9999 269.69 97.8099 268.49 95.4299C267.28 93.0399 265.62 90.4799 263.58 87.7999C261.54 85.1199 259.09 82.3599 256.26 79.5799C253.44 76.8099 250.24 74.0199 246.66 71.3799C244.87 70.0599 242.98 68.7799 240.98 67.5799C238.99 66.3699 236.89 65.2499 234.67 64.2699C232.46 63.3099 230.12 62.4699 227.65 62.0699C226.42 61.8799 225.15 61.7899 223.91 61.9799C223.29 62.0799 222.68 62.2499 222.1 62.4999C221.53 62.7799 221.01 63.1399 220.58 63.6099C220.17 64.0899 219.86 64.6499 219.65 65.2399C219.46 65.8399 219.36 66.4699 219.33 67.0999C219.28 68.3599 219.52 69.6099 219.85 70.8099C220.52 73.2099 221.62 75.4399 222.83 77.5299C224.05 79.6199 225.41 81.5799 226.83 83.4199C228.25 85.2599 229.74 86.9999 231.25 88.6299C234.28 91.8899 237.41 94.7499 240.49 97.2399C243.57 99.7299 246.6 101.85 249.49 103.57C252.38 105.29 255.12 106.65 257.63 107.58C260.13 108.51 262.4 109.04 264.28 109.12C265.22 109.16 266.06 109.11 266.76 108.95C266.94 108.92 267.1 108.86 267.26 108.82C267.42 108.78 267.58 108.73 267.71 108.67C267.85 108.61 267.99 108.56 268.11 108.51C268.23 108.45 268.35 108.38 268.46 108.32C268.68 108.21 268.85 108.07 269.01 107.96C269.08 107.9 269.16 107.86 269.22 107.81C269.28 107.76 269.33 107.71 269.37 107.66C269.55 107.48 269.65 107.4 269.65 107.4C269.65 107.4 269.56 107.49 269.38 107.67C269.33 107.72 269.28 107.77 269.23 107.82C269.17 107.87 269.1 107.92 269.02 107.98C268.87 108.09 268.7 108.23 268.48 108.34C268.37 108.4 268.26 108.47 268.13 108.53C268 108.58 267.87 108.64 267.72 108.7C267.58 108.76 267.43 108.81 267.26 108.85C267.1 108.89 266.93 108.96 266.75 108.98C266.04 109.14 265.2 109.2 264.25 109.16C262.36 109.09 260.08 108.57 257.57 107.64C255.05 106.72 252.31 105.37 249.41 103.65C246.51 101.93 243.48 99.8099 240.39 97.3199C237.31 94.8299 234.17 91.9699 231.13 88.7099C229.61 87.0799 228.12 85.3399 226.7 83.4899C225.27 81.6499 223.91 79.6799 222.68 77.5899C221.47 75.4899 220.36 73.2599 219.68 70.8299C219.35 69.6199 219.11 68.3599 219.16 67.0799C219.18 66.4399 219.29 65.7999 219.48 65.1799C219.7 64.5699 220.01 63.9899 220.44 63.4999C220.88 63.0199 221.42 62.6399 222 62.3599C222.59 62.0899 223.22 61.9199 223.85 61.8199C225.12 61.6299 226.4 61.7199 227.64 61.9099C230.12 62.3099 232.47 63.1599 234.69 64.1199C236.91 65.0999 239.02 66.2299 241.01 67.4399C243.01 68.6499 244.9 69.9299 246.7 71.2499C250.29 73.8999 253.49 76.6899 256.31 79.4699C259.13 82.2499 261.58 85.0299 263.62 87.7099C265.66 90.3899 267.32 92.9699 268.52 95.3699C269.72 97.7599 270.51 99.9599 270.79 101.83C270.93 102.76 270.97 103.61 270.89 104.33C270.89 104.51 270.84 104.68 270.81 104.85C270.78 105.02 270.76 105.17 270.71 105.32C270.67 105.47 270.63 105.61 270.59 105.74C270.54 105.87 270.49 105.99 270.44 106.11C270.35 106.34 270.24 106.53 270.14 106.69C270.09 106.77 270.05 106.85 270.01 106.91C269.96 106.97 269.92 107.03 269.88 107.08C269.72 107.28 269.64 107.38 269.64 107.38L269.66 107.4Z" fill="#1478A3"/>
<path d="M278.74 85.4899C278.74 85.4899 278.73 85.3599 278.71 85.1099C278.71 85.0499 278.7 84.9799 278.69 84.8999C278.68 84.8199 278.66 84.7399 278.64 84.6499C278.6 84.4699 278.56 84.2499 278.47 84.0199C278.43 83.8999 278.39 83.7799 278.34 83.6499C278.28 83.5299 278.21 83.3999 278.15 83.2599C278.09 83.1199 278 82.9899 277.91 82.8499C277.82 82.7099 277.74 82.5599 277.62 82.4199C277.2 81.8299 276.6 81.2399 275.88 80.6399C274.43 79.4399 272.38 78.3299 269.89 77.3599C267.4 76.3799 264.45 75.5699 261.15 74.9299C257.85 74.2899 254.17 73.8599 250.22 73.6699C246.27 73.4799 242.03 73.5299 237.6 73.9499C235.39 74.1599 233.12 74.4699 230.83 74.8899C228.54 75.3199 226.22 75.8699 223.92 76.6199C221.63 77.3799 219.32 78.3099 217.22 79.6499C216.18 80.3299 215.17 81.0999 214.37 82.0699C213.97 82.5599 213.63 83.0899 213.37 83.6599C213.13 84.2399 212.99 84.8599 212.98 85.4999C212.99 86.1299 213.13 86.7599 213.37 87.3399C213.63 87.9199 213.97 88.4499 214.37 88.9399C215.17 89.9099 216.18 90.6899 217.22 91.3599C219.32 92.7099 221.63 93.6299 223.92 94.3899C226.22 95.1399 228.54 95.6999 230.83 96.1199C233.12 96.5499 235.38 96.8499 237.6 97.0599C242.03 97.4799 246.27 97.5199 250.23 97.3399C254.18 97.1499 257.85 96.7199 261.16 96.0799C264.46 95.4399 267.41 94.6299 269.9 93.6499C272.39 92.6799 274.43 91.5699 275.89 90.3699C276.61 89.7699 277.21 89.1799 277.63 88.5899C277.75 88.4499 277.83 88.2899 277.92 88.1599C278.01 88.0199 278.1 87.8899 278.16 87.7499C278.23 87.6099 278.29 87.4799 278.35 87.3599C278.4 87.2299 278.44 87.1099 278.48 86.9899C278.57 86.7599 278.61 86.5399 278.65 86.3599C278.67 86.2699 278.69 86.1799 278.7 86.1099C278.7 86.0299 278.71 85.9599 278.72 85.8999C278.74 85.6499 278.75 85.5199 278.75 85.5199C278.75 85.5199 278.75 85.6499 278.73 85.8999C278.73 85.9599 278.73 86.0399 278.72 86.1099C278.72 86.1899 278.69 86.2699 278.67 86.3699C278.63 86.5499 278.6 86.7699 278.51 86.9999C278.47 87.1199 278.43 87.2399 278.38 87.3699C278.32 87.4999 278.26 87.6299 278.19 87.7599C278.13 87.8999 278.04 88.0399 277.95 88.1799C277.86 88.3199 277.78 88.4799 277.66 88.6199C277.24 89.2199 276.65 89.8199 275.92 90.4199C274.47 91.6299 272.42 92.7499 269.93 93.7299C267.44 94.7199 264.49 95.5399 261.18 96.1799C257.87 96.8299 254.2 97.2599 250.24 97.4599C246.28 97.6499 242.04 97.6099 237.6 97.1999C235.38 96.9899 233.11 96.6899 230.82 96.2599C228.53 95.8399 226.2 95.2799 223.89 94.5299C221.59 93.7699 219.28 92.8399 217.15 91.4799C216.1 90.7999 215.08 90.0199 214.26 89.0299C213.85 88.5399 213.5 87.9899 213.24 87.3999C213 86.7999 212.85 86.1599 212.84 85.4999C212.85 84.8499 213 84.1999 213.25 83.5999C213.51 83.0099 213.87 82.4599 214.27 81.9699C215.09 80.9799 216.11 80.1999 217.16 79.5199C219.28 78.1699 221.59 77.2299 223.89 76.4799C226.2 75.7299 228.52 75.1699 230.82 74.7499C233.11 74.3199 235.38 74.0199 237.6 73.8099C242.04 73.3999 246.28 73.3499 250.24 73.5499C254.2 73.7499 257.87 74.1899 261.18 74.8299C264.49 75.4799 267.44 76.2999 269.93 77.2799C272.42 78.2599 274.47 79.3799 275.92 80.5899C276.65 81.1899 277.24 81.7899 277.66 82.3899C277.78 82.5299 277.86 82.6899 277.95 82.8299C278.04 82.9699 278.13 83.1099 278.19 83.2499C278.26 83.3899 278.32 83.5199 278.38 83.6399C278.43 83.7699 278.47 83.8999 278.51 84.0099C278.6 84.2399 278.64 84.4599 278.67 84.6399C278.69 84.7299 278.71 84.8199 278.72 84.8999C278.72 84.9799 278.72 85.0499 278.73 85.1099C278.75 85.3599 278.75 85.4899 278.75 85.4899H278.74Z" fill="#1478A3"/>
<path d="M266.71 58.2099C266.71 58.2099 266.6 58.1399 266.39 57.9999C266.34 57.9699 266.28 57.9299 266.21 57.8799C266.14 57.8399 266.06 57.8099 265.98 57.7699C265.81 57.6899 265.62 57.5899 265.38 57.5199C265.26 57.4799 265.14 57.4399 265.01 57.3999C264.87 57.3699 264.73 57.3399 264.58 57.3099C264.43 57.2699 264.27 57.2599 264.11 57.2499C263.94 57.2399 263.77 57.2099 263.59 57.2099C262.87 57.1799 262.03 57.2899 261.12 57.4899C259.28 57.8999 257.15 58.8399 254.86 60.2099C252.56 61.5799 250.12 63.4099 247.59 65.6299C245.06 67.8499 242.47 70.4899 239.9 73.4899C237.33 76.4999 234.77 79.8799 232.38 83.6399C231.19 85.5199 230.04 87.4899 228.98 89.5699C227.91 91.6399 226.94 93.8099 226.12 96.0899C225.31 98.3699 224.64 100.76 224.41 103.24C224.31 104.48 224.3 105.75 224.58 106.98C224.72 107.59 224.93 108.19 225.23 108.75C225.54 109.3 225.95 109.79 226.44 110.19C226.95 110.57 227.53 110.84 228.13 111.01C228.74 111.16 229.37 111.22 230 111.2C231.26 111.16 232.49 110.84 233.66 110.43C236.01 109.59 238.16 108.34 240.16 106.99C242.16 105.63 244.02 104.14 245.76 102.59C247.5 101.04 249.13 99.4399 250.65 97.8199C253.69 94.5699 256.33 91.2499 258.6 88.0099C260.87 84.7699 262.78 81.5999 264.3 78.5999C265.82 75.5999 266.98 72.7699 267.74 70.2099C268.49 67.6499 268.87 65.3499 268.82 63.4699C268.79 62.5299 268.69 61.6999 268.48 60.9999C268.44 60.8199 268.37 60.6599 268.32 60.5099C268.27 60.3499 268.21 60.1999 268.14 60.0699C268.07 59.9299 268.01 59.7999 267.95 59.6799C267.88 59.5599 267.81 59.4499 267.74 59.3499C267.62 59.1299 267.47 58.9699 267.35 58.8299C267.29 58.7599 267.24 58.6899 267.18 58.6299C267.12 58.5799 267.07 58.5299 267.02 58.4899C266.83 58.3199 266.74 58.2299 266.74 58.2299C266.74 58.2299 266.84 58.3099 267.03 58.4799C267.08 58.5199 267.13 58.5699 267.19 58.6199C267.25 58.6799 267.3 58.7399 267.36 58.8099C267.48 58.9499 267.63 59.1099 267.76 59.3299C267.83 59.4299 267.9 59.5399 267.97 59.6599C268.03 59.7799 268.1 59.9199 268.16 60.0499C268.23 60.1799 268.29 60.3399 268.34 60.4899C268.39 60.6499 268.47 60.8099 268.51 60.9899C268.72 61.6899 268.83 62.5199 268.87 63.4699C268.94 65.3599 268.57 67.6699 267.82 70.2399C267.07 72.8099 265.91 75.6499 264.4 78.6599C262.88 81.6699 260.98 84.8399 258.71 88.0899C256.44 91.3399 253.8 94.6699 250.76 97.9199C249.24 99.5499 247.61 101.15 245.86 102.7C244.12 104.25 242.25 105.75 240.25 107.11C238.24 108.47 236.09 109.72 233.72 110.57C232.54 110.98 231.29 111.31 230.01 111.35C229.37 111.37 228.72 111.31 228.09 111.16C227.47 110.99 226.87 110.71 226.34 110.32C225.83 109.91 225.41 109.4 225.09 108.84C224.78 108.27 224.57 107.66 224.43 107.03C224.15 105.78 224.16 104.49 224.26 103.25C224.49 100.74 225.17 98.3499 225.98 96.0599C226.8 93.7799 227.78 91.5999 228.85 89.5299C229.92 87.4499 231.07 85.4799 232.26 83.5999C234.65 79.8399 237.22 76.4599 239.8 73.4499C242.38 70.4399 244.98 67.8099 247.52 65.5899C250.06 63.3699 252.51 61.5399 254.82 60.1799C257.12 58.8099 259.26 57.8799 261.11 57.4699C262.03 57.2699 262.87 57.1599 263.6 57.1999C263.78 57.1999 263.96 57.2299 264.12 57.2399C264.29 57.2499 264.45 57.2699 264.6 57.3099C264.75 57.3399 264.89 57.3699 265.03 57.3999C265.16 57.4399 265.29 57.4899 265.4 57.5199C265.64 57.5899 265.83 57.6899 266 57.7799C266.08 57.8199 266.16 57.8599 266.23 57.8999C266.3 57.9399 266.35 57.9799 266.41 58.0199C266.62 58.1599 266.73 58.2399 266.73 58.2399L266.71 58.2099Z" fill="#1478A3"/>
<path d="M212.54 99.08C213.02 99.56 213.02 100.33 212.54 100.81C212.06 101.29 211.29 101.29 210.81 100.81C210.33 100.33 210.33 99.56 210.81 99.08C211.29 98.6 212.06 98.6 212.54 99.08Z" fill="#1478A3"/>
<path d="M281.53 61.19C281.53 61.87 280.98 62.41 280.31 62.41C279.64 62.41 279.09 61.86 279.09 61.19C279.09 60.52 279.64 59.97 280.31 59.97C280.98 59.97 281.53 60.52 281.53 61.19Z" fill="#1478A3"/>
<path d="M220.26 103.1C220.26 103.27 220.12 103.41 219.95 103.41C219.78 103.41 219.64 103.27 219.64 103.1C219.64 102.93 219.78 102.79 219.95 102.79C220.12 102.79 220.26 102.93 220.26 103.1Z" fill="#1478A3"/>
<path d="M226.89 68.8399C226.89 69.0099 226.75 69.1499 226.58 69.1499C226.41 69.1499 226.27 69.0099 226.27 68.8399C226.27 68.6699 226.41 68.5299 226.58 68.5299C226.75 68.5299 226.89 68.6699 226.89 68.8399Z" fill="#1478A3"/>
<path d="M275.38 85.4899C275.38 85.6599 275.24 85.7999 275.07 85.7999C274.9 85.7999 274.76 85.6599 274.76 85.4899C274.76 85.3199 274.9 85.1799 275.07 85.1799C275.24 85.1799 275.38 85.3199 275.38 85.4899Z" fill="#1478A3"/>
<path d="M279.7 70.9999C279.7 71.1699 279.56 71.3099 279.39 71.3099C279.22 71.3099 279.08 71.1699 279.08 70.9999C279.08 70.8299 279.22 70.6899 279.39 70.6899C279.56 70.6899 279.7 70.8299 279.7 70.9999Z" fill="#1478A3"/>
<path d="M258.76 92.3199H254.92V71.3999C254.92 66.4799 250.91 62.4699 245.99 62.4699C241.07 62.4699 237.06 66.4799 237.06 71.3999V92.3199H233.22V71.3999C233.22 64.3599 238.95 58.6299 245.99 58.6299C253.03 58.6299 258.76 64.3599 258.76 71.3999V92.3199Z" fill="#1478A3"/>
<g opacity="0.3">
<path d="M258.76 92.3199H254.92V71.3999C254.92 66.4799 250.91 62.4699 245.99 62.4699C241.07 62.4699 237.06 66.4799 237.06 71.3999V92.3199H233.22V71.3999C233.22 64.3599 238.95 58.6299 245.99 58.6299C253.03 58.6299 258.76 64.3599 258.76 71.3999V92.3199Z" fill="black"/>
</g>
<path d="M260.95 83.0199H231.03C229.788 83.0199 228.78 84.0273 228.78 85.2699V102.85C228.78 104.093 229.788 105.1 231.03 105.1H260.95C262.193 105.1 263.2 104.093 263.2 102.85V85.2699C263.2 84.0273 262.193 83.0199 260.95 83.0199Z" fill="#1478A3"/>
<g opacity="0.3">
<path d="M248.87 91.1799C248.87 89.5899 247.58 88.2999 245.99 88.2999C244.4 88.2999 243.11 89.5899 243.11 91.1799C243.11 92.4899 244 93.5899 245.2 93.9299V98.2299H246.77V93.9299C247.97 93.5899 248.86 92.4899 248.86 91.1799H248.87Z" fill="black"/>
</g>
<path d="M230.61 103.01C230.53 103.01 230.47 99.3299 230.47 94.7899C230.47 90.2499 230.53 86.5599 230.61 86.5599C230.69 86.5599 230.75 90.2399 230.75 94.7899C230.75 99.3399 230.69 103.01 230.61 103.01Z" fill="#FAFAFA"/>
<path d="M243.74 94.8698C243.74 94.8698 243.61 94.8298 243.4 94.6798C243.2 94.5298 242.93 94.2898 242.66 93.9198C242.12 93.2198 241.63 91.9398 241.95 90.5598C242.28 89.1798 243.3 88.2598 244.09 87.8698C244.49 87.6698 244.84 87.5698 245.09 87.5298C245.34 87.4898 245.48 87.4898 245.48 87.5098C245.49 87.5598 244.93 87.6198 244.19 88.0498C243.46 88.4598 242.54 89.3498 242.23 90.6298C241.93 91.8998 242.36 93.1098 242.83 93.8098C243.3 94.5298 243.78 94.8298 243.74 94.8698Z" fill="#FAFAFA"/>
<path d="M297.08 124.02H191.11C185.963 124.02 181.79 128.193 181.79 133.34V134.48C181.79 139.627 185.963 143.8 191.11 143.8H297.08C302.227 143.8 306.4 139.627 306.4 134.48V133.34C306.4 128.193 302.227 124.02 297.08 124.02Z" fill="#F5F5F5"/>
<path d="M298 151.15H192.03C186.883 151.15 182.71 155.323 182.71 160.47V161.61C182.71 166.757 186.883 170.93 192.03 170.93H298C303.147 170.93 307.32 166.757 307.32 161.61V160.47C307.32 155.323 303.147 151.15 298 151.15Z" fill="#F5F5F5"/>
<path d="M201.49 133.76V130.89H202.67V133.71C202.67 134.68 203.09 135.08 203.81 135.08C204.53 135.08 204.95 134.68 204.95 133.71V130.89H206.12V133.76C206.12 135.27 205.26 136.1 203.8 136.1C202.34 136.1 201.48 135.27 201.48 133.76H201.49Z" fill="#263238"/>
<path d="M206.83 135.65L207.21 134.83C207.56 135.06 208.09 135.21 208.58 135.21C209.11 135.21 209.3 135.07 209.3 134.85C209.3 134.21 206.93 134.86 206.93 133.29C206.93 132.54 207.6 132.02 208.75 132.02C209.29 132.02 209.89 132.14 210.26 132.36L209.88 133.17C209.49 132.95 209.1 132.88 208.75 132.88C208.24 132.88 208.02 133.04 208.02 133.25C208.02 133.92 210.4 133.27 210.4 134.82C210.4 135.55 209.72 136.07 208.54 136.07C207.87 136.07 207.2 135.89 206.84 135.65H206.83Z" fill="#263238"/>
<path d="M214.92 134.37H211.95C212.06 134.86 212.48 135.16 213.07 135.16C213.49 135.16 213.79 135.04 214.06 134.78L214.67 135.44C214.3 135.86 213.76 136.08 213.05 136.08C211.69 136.08 210.81 135.22 210.81 134.06C210.81 132.9 211.71 132.04 212.91 132.04C214.11 132.04 214.96 132.81 214.96 134.08C214.96 134.17 214.95 134.29 214.94 134.39L214.92 134.37ZM211.94 133.7H213.88C213.8 133.2 213.43 132.88 212.92 132.88C212.41 132.88 212.03 133.19 211.95 133.7H211.94Z" fill="#263238"/>
<path d="M218.15 132.02V133.07C218.05 133.07 217.98 133.06 217.89 133.06C217.26 133.06 216.84 133.4 216.84 134.16V136.02H215.7V132.09H216.79V132.61C217.07 132.23 217.54 132.03 218.14 132.03L218.15 132.02Z" fill="#263238"/>
<path d="M222.85 133.76V136.01H221.71V133.93C221.71 133.29 221.42 133 220.91 133C220.36 133 219.97 133.34 219.97 134.06V136H218.83V132.07H219.92V132.53C220.23 132.19 220.69 132.01 221.22 132.01C222.15 132.01 222.85 132.55 222.85 133.75V133.76Z" fill="#263238"/>
<path d="M227.36 133.77V136.01H226.29V135.52C226.08 135.88 225.67 136.07 225.09 136.07C224.17 136.07 223.62 135.56 223.62 134.88C223.62 134.2 224.11 133.7 225.31 133.7H226.22C226.22 133.21 225.93 132.93 225.31 132.93C224.89 132.93 224.46 133.07 224.18 133.3L223.77 132.5C224.2 132.19 224.84 132.02 225.47 132.02C226.67 132.02 227.36 132.58 227.36 133.77ZM226.22 134.77V134.37H225.44C224.91 134.37 224.74 134.57 224.74 134.83C224.74 135.12 224.98 135.31 225.38 135.31C225.76 135.31 226.09 135.13 226.22 134.78V134.77Z" fill="#263238"/>
<path d="M235.03 133.76V136.01H233.89V133.93C233.89 133.29 233.6 133 233.14 133C232.63 133 232.27 133.33 232.27 134.03V136H231.13V133.92C231.13 133.28 230.86 132.99 230.38 132.99C229.88 132.99 229.52 133.32 229.52 134.02V135.99H228.38V132.06H229.47V132.51C229.76 132.17 230.2 132 230.71 132C231.26 132 231.73 132.21 232 132.64C232.31 132.24 232.83 132 233.42 132C234.36 132 235.03 132.54 235.03 133.74V133.76Z" fill="#263238"/>
<path d="M239.93 134.37H236.96C237.07 134.86 237.49 135.16 238.08 135.16C238.5 135.16 238.8 135.04 239.07 134.78L239.68 135.44C239.31 135.86 238.77 136.08 238.06 136.08C236.7 136.08 235.82 135.22 235.82 134.06C235.82 132.9 236.72 132.04 237.92 132.04C239.12 132.04 239.97 132.81 239.97 134.08C239.97 134.17 239.96 134.29 239.95 134.39L239.93 134.37ZM236.94 133.7H238.88C238.8 133.2 238.43 132.88 237.92 132.88C237.41 132.88 237.03 133.19 236.95 133.7H236.94Z" fill="#263238"/>
<path d="M247.46 134.01C247.46 135.32 246.86 136.06 245.96 136.06C245.46 136.06 245.11 135.84 244.96 135.42C244.7 135.83 244.29 136.06 243.71 136.06C242.77 136.06 242.02 135.31 242.02 134.21C242.02 133.11 242.76 132.37 243.71 132.37C244.19 132.37 244.57 132.54 244.84 132.85V132.42H245.83V134.79C245.83 135.14 245.98 135.26 246.18 135.26C246.52 135.26 246.72 134.87 246.72 134.02C246.72 132.54 245.62 131.51 244 131.51C242.38 131.51 241.28 132.62 241.28 134.15C241.28 135.68 242.35 136.81 243.97 136.81C244.43 136.81 244.95 136.71 245.41 136.49L245.64 137.16C245.19 137.39 244.54 137.51 243.97 137.51C241.86 137.51 240.46 136.08 240.46 134.15C240.46 132.22 241.87 130.82 244 130.82C246.13 130.82 247.46 132.17 247.46 134.01ZM244.86 134.21C244.86 133.57 244.47 133.22 243.95 133.22C243.43 133.22 243.04 133.59 243.04 134.21C243.04 134.83 243.41 135.22 243.95 135.22C244.49 135.22 244.86 134.85 244.86 134.21Z" fill="#263238"/>
<path d="M254.92 133.76V136.01H253.78V133.93C253.78 133.29 253.49 133 253.03 133C252.52 133 252.16 133.33 252.16 134.03V136H251.02V133.92C251.02 133.28 250.75 132.99 250.27 132.99C249.77 132.99 249.41 133.32 249.41 134.02V135.99H248.27V132.06H249.36V132.51C249.65 132.17 250.09 132 250.6 132C251.15 132 251.62 132.21 251.89 132.64C252.2 132.24 252.72 132 253.31 132C254.25 132 254.92 132.54 254.92 133.74V133.76Z" fill="#263238"/>
<path d="M259.42 133.77V136.01H258.35V135.52C258.14 135.88 257.73 136.07 257.15 136.07C256.23 136.07 255.68 135.56 255.68 134.88C255.68 134.2 256.17 133.7 257.37 133.7H258.28C258.28 133.21 257.99 132.93 257.37 132.93C256.95 132.93 256.52 133.07 256.24 133.3L255.83 132.5C256.26 132.19 256.9 132.02 257.53 132.02C258.73 132.02 259.42 132.58 259.42 133.77ZM258.28 134.77V134.37H257.5C256.97 134.37 256.8 134.57 256.8 134.83C256.8 135.12 257.04 135.31 257.44 135.31C257.82 135.31 258.15 135.13 258.28 134.78V134.77Z" fill="#263238"/>
<path d="M260.31 130.89C260.31 130.53 260.6 130.25 261.02 130.25C261.44 130.25 261.73 130.51 261.73 130.86C261.73 131.24 261.44 131.52 261.02 131.52C260.6 131.52 260.31 131.24 260.31 130.88V130.89ZM260.45 132.08H261.59V136.01H260.45V132.08Z" fill="#263238"/>
<path d="M262.65 130.59H263.79V136.01H262.65V130.59Z" fill="#263238"/>
<path d="M264.58 135.35C264.58 134.93 264.89 134.65 265.29 134.65C265.69 134.65 266 134.93 266 135.35C266 135.77 265.69 136.07 265.29 136.07C264.89 136.07 264.58 135.77 264.58 135.35Z" fill="#263238"/>
<path d="M266.42 134.04C266.42 132.86 267.33 132.02 268.61 132.02C269.44 132.02 270.09 132.38 270.37 133.02L269.49 133.5C269.28 133.13 268.96 132.96 268.61 132.96C268.03 132.96 267.58 133.36 267.58 134.05C267.58 134.74 268.03 135.14 268.61 135.14C268.97 135.14 269.28 134.98 269.49 134.6L270.37 135.08C270.08 135.71 269.43 136.07 268.61 136.07C267.33 136.07 266.42 135.23 266.42 134.05V134.04Z" fill="#263238"/>
<path d="M270.69 134.04C270.69 132.86 271.6 132.02 272.85 132.02C274.1 132.02 275.01 132.86 275.01 134.04C275.01 135.22 274.1 136.06 272.85 136.06C271.6 136.06 270.69 135.22 270.69 134.04ZM273.86 134.04C273.86 133.36 273.43 132.95 272.86 132.95C272.29 132.95 271.85 133.36 271.85 134.04C271.85 134.72 272.29 135.13 272.86 135.13C273.43 135.13 273.86 134.72 273.86 134.04Z" fill="#263238"/>
<path d="M282.42 133.76V136.01H281.28V133.93C281.28 133.29 280.99 133 280.53 133C280.02 133 279.66 133.33 279.66 134.03V136H278.52V133.92C278.52 133.28 278.25 132.99 277.77 132.99C277.27 132.99 276.91 133.32 276.91 134.02V135.99H275.77V132.06H276.86V132.51C277.15 132.17 277.59 132 278.1 132C278.65 132 279.12 132.21 279.39 132.64C279.7 132.24 280.22 132 280.81 132C281.75 132 282.42 132.54 282.42 133.74V133.76Z" fill="#263238"/>
<path d="M216.76 161.15L218.61 162.15L217.78 163.54L215.91 162.44L215.94 164.5H214.34L214.36 162.43L212.49 163.55L211.67 162.16L213.52 161.16L211.67 160.14L212.49 158.75L214.36 159.87L214.34 157.8H215.94L215.91 159.87L217.78 158.75L218.61 160.14L216.76 161.16V161.15Z" fill="#263238"/>
<path d="M224.47 161.15L226.32 162.15L225.49 163.54L223.62 162.44L223.65 164.5H222.05L222.07 162.43L220.2 163.55L219.38 162.16L221.23 161.16L219.38 160.14L220.2 158.75L222.07 159.87L222.05 157.8H223.65L223.62 159.87L225.49 158.75L226.32 160.14L224.47 161.16V161.15Z" fill="#263238"/>
<path d="M232.17 161.15L234.02 162.15L233.19 163.54L231.32 162.44L231.35 164.5H229.75L229.77 162.43L227.9 163.55L227.08 162.16L228.93 161.16L227.08 160.14L227.9 158.75L229.77 159.87L229.75 157.8H231.35L231.32 159.87L233.19 158.75L234.02 160.14L232.17 161.16V161.15Z" fill="#263238"/>
<path d="M239.88 161.15L241.73 162.15L240.9 163.54L239.03 162.44L239.06 164.5H237.46L237.48 162.43L235.61 163.55L234.79 162.16L236.64 161.16L234.79 160.14L235.61 158.75L237.48 159.87L237.46 157.8H239.06L239.03 159.87L240.9 158.75L241.73 160.14L239.88 161.16V161.15Z" fill="#263238"/>
<path d="M247.59 161.15L249.44 162.15L248.61 163.54L246.74 162.44L246.77 164.5H245.17L245.19 162.43L243.32 163.55L242.5 162.16L244.35 161.16L242.5 160.14L243.32 158.75L245.19 159.87L245.17 157.8H246.77L246.74 159.87L248.61 158.75L249.44 160.14L247.59 161.16V161.15Z" fill="#263238"/>
<path d="M255.3 161.15L257.15 162.15L256.32 163.54L254.45 162.44L254.48 164.5H252.88L252.9 162.43L251.03 163.55L250.21 162.16L252.06 161.16L250.21 160.14L251.03 158.75L252.9 159.87L252.88 157.8H254.48L254.45 159.87L256.32 158.75L257.15 160.14L255.3 161.16V161.15Z" fill="#263238"/>
<path d="M263 161.15L264.85 162.15L264.02 163.54L262.15 162.44L262.18 164.5H260.58L260.6 162.43L258.73 163.55L257.91 162.16L259.76 161.16L257.91 160.14L258.73 158.75L260.6 159.87L260.58 157.8H262.18L262.15 159.87L264.02 158.75L264.85 160.14L263 161.16V161.15Z" fill="#263238"/>
<path d="M270.71 161.15L272.56 162.15L271.73 163.54L269.86 162.44L269.89 164.5H268.29L268.31 162.43L266.44 163.55L265.62 162.16L267.47 161.16L265.62 160.14L266.44 158.75L268.31 159.87L268.29 157.8H269.89L269.86 159.87L271.73 158.75L272.56 160.14L270.71 161.16V161.15Z" fill="#263238"/>
<path d="M354.98 216.28H205.96C202.437 216.28 199.58 219.136 199.58 222.66V299.8C199.58 303.324 202.437 306.18 205.96 306.18H354.98C358.504 306.18 361.36 303.324 361.36 299.8V222.66C361.36 219.136 358.504 216.28 354.98 216.28Z" fill="white"/>
<path d="M354.98 306.18C354.98 306.18 355.41 306.18 356.24 306.03C357.04 305.85 358.28 305.44 359.45 304.28C360.02 303.7 360.55 302.94 360.89 302C361.08 301.53 361.17 301.01 361.25 300.47C361.29 299.93 361.28 299.35 361.28 298.75C361.28 296.35 361.27 293.58 361.26 290.47C361.24 278 361.21 259.98 361.18 237.71C361.18 234.93 361.18 232.07 361.18 229.16C361.18 227.7 361.18 226.23 361.18 224.74C361.14 223.25 361.34 221.72 360.73 220.36C360.18 219 359.12 217.83 357.77 217.15C357.1 216.81 356.37 216.6 355.61 216.52C354.87 216.46 354.06 216.5 353.27 216.49C350.11 216.49 346.89 216.49 343.62 216.49C330.52 216.49 316.53 216.51 301.8 216.51C272.35 216.51 239.97 216.52 205.98 216.53C204.96 216.53 203.95 216.79 203.05 217.27C202.17 217.77 201.39 218.46 200.84 219.32C200.3 220.17 199.94 221.15 199.88 222.16C199.83 223.17 199.87 224.25 199.86 225.29C199.86 229.49 199.86 233.66 199.86 237.8C199.86 246.08 199.86 254.23 199.86 262.25C199.86 270.26 199.86 278.14 199.86 285.85C199.86 289.7 199.86 293.52 199.86 297.29C199.86 298.23 199.84 299.19 199.87 300.1C199.91 301 200.16 301.89 200.57 302.68C201.41 304.27 202.97 305.43 204.71 305.8C205.57 306 206.48 305.92 207.4 305.94C208.31 305.94 209.23 305.94 210.14 305.94C211.96 305.94 213.76 305.94 215.56 305.94C219.15 305.94 222.69 305.94 226.18 305.94C233.16 305.94 239.93 305.94 246.48 305.95C259.58 305.96 271.78 305.97 282.92 305.98C305.19 306.01 323.21 306.04 335.68 306.06C341.9 306.08 346.74 306.1 350.02 306.11C351.65 306.12 352.9 306.13 353.75 306.14C354.59 306.14 355.02 306.17 355.02 306.17C355.02 306.17 354.59 306.19 353.75 306.2C352.9 306.2 351.65 306.21 350.02 306.23C346.73 306.24 341.9 306.26 335.68 306.28C323.21 306.3 305.19 306.33 282.92 306.36C271.78 306.36 259.58 306.38 246.48 306.39C239.93 306.39 233.16 306.39 226.18 306.4C222.69 306.4 219.15 306.4 215.56 306.4C213.77 306.4 211.96 306.4 210.14 306.4C209.23 306.4 208.32 306.4 207.4 306.4C206.5 306.38 205.56 306.47 204.61 306.26C202.74 305.87 201.06 304.61 200.15 302.9C199.7 302.05 199.43 301.09 199.39 300.12C199.36 299.16 199.39 298.24 199.37 297.29C199.37 293.52 199.37 289.7 199.37 285.85C199.37 278.14 199.37 270.27 199.37 262.25C199.37 254.24 199.37 246.08 199.37 237.8C199.37 233.66 199.37 229.49 199.37 225.29C199.38 224.23 199.34 223.21 199.4 222.12C199.47 221.02 199.86 219.96 200.45 219.04C201.04 218.11 201.89 217.36 202.85 216.82C203.82 216.3 204.92 216.02 206.03 216.02C240.02 216.02 272.4 216.03 301.85 216.04C316.58 216.04 330.57 216.06 343.67 216.06C346.94 216.06 350.16 216.06 353.32 216.06C354.12 216.07 354.88 216.03 355.7 216.09C356.5 216.17 357.29 216.4 358 216.77C359.43 217.49 360.56 218.74 361.14 220.19C361.44 220.92 361.59 221.69 361.61 222.47C361.61 223.22 361.61 223.97 361.61 224.72C361.61 226.21 361.61 227.68 361.61 229.14C361.61 232.05 361.61 234.91 361.61 237.69C361.58 259.96 361.55 277.98 361.53 290.45C361.53 293.56 361.51 296.33 361.51 298.73C361.51 299.33 361.51 299.91 361.47 300.47C361.39 301.02 361.29 301.55 361.09 302.03C360.73 302.99 360.19 303.76 359.6 304.34C358.4 305.5 357.14 305.91 356.33 306.07C355.91 306.14 355.6 306.17 355.38 306.17C355.17 306.17 355.06 306.17 355.06 306.17L354.98 306.18Z" fill="#263238"/>
<path d="M255.94 248.05V249.17H251.26V243.12H255.83V244.24H252.65V245.55H255.46V246.64H252.65V248.04H255.94V248.05Z" fill="#263238"/>
<path d="M262.61 243.12V249.17H261.46L258.45 245.5V249.17H257.07V243.12H258.23L261.24 246.79V243.12H262.62H262.61Z" fill="#263238"/>
<path d="M265.29 244.26H263.36V243.12H268.63V244.26H266.7V249.17H265.3V244.26H265.29Z" fill="#263238"/>
<path d="M274.06 248.05V249.17H269.38V243.12H273.95V244.24H270.77V245.55H273.58V246.64H270.77V248.04H274.06V248.05Z" fill="#263238"/>
<path d="M279.03 249.17L277.86 247.49H276.57V249.17H275.17V243.12H277.79C279.4 243.12 280.41 243.96 280.41 245.31C280.41 246.22 279.95 246.88 279.17 247.22L280.53 249.16H279.03V249.17ZM277.72 244.26H276.58V246.37H277.72C278.58 246.37 279.01 245.97 279.01 245.32C279.01 244.67 278.58 244.27 277.72 244.27V244.26Z" fill="#263238"/>
<path d="M283.59 246.15C283.59 244.33 284.99 243.02 286.87 243.02C287.91 243.02 288.79 243.4 289.36 244.09L288.46 244.92C288.05 244.45 287.54 244.21 286.94 244.21C285.81 244.21 285.01 245 285.01 246.14C285.01 247.28 285.81 248.07 286.94 248.07C287.54 248.07 288.05 247.83 288.46 247.35L289.36 248.18C288.79 248.88 287.92 249.26 286.86 249.26C284.99 249.26 283.59 247.96 283.59 246.13V246.15Z" fill="#263238"/>
<path d="M289.79 246.15C289.79 244.35 291.19 243.02 293.1 243.02C295.01 243.02 296.41 244.34 296.41 246.15C296.41 247.96 295 249.28 293.1 249.28C291.2 249.28 289.79 247.95 289.79 246.15ZM294.99 246.15C294.99 245 294.18 244.22 293.1 244.22C292.02 244.22 291.21 245.01 291.21 246.15C291.21 247.29 292.02 248.08 293.1 248.08C294.18 248.08 294.99 247.29 294.99 246.15Z" fill="#263238"/>
<path d="M297.46 243.12H300.21C302.19 243.12 303.54 244.31 303.54 246.14C303.54 247.97 302.18 249.16 300.21 249.16H297.46V243.11V243.12ZM300.14 248.02C301.34 248.02 302.13 247.3 302.13 246.15C302.13 245 301.34 244.28 300.14 244.28H298.86V248.03H300.14V248.02Z" fill="#263238"/>
<path d="M309.28 248.05V249.17H304.6V243.12H309.17V244.24H305.99V245.55H308.8V246.64H305.99V248.04H309.28V248.05Z" fill="#263238"/>
<path d="M233.01 258.82H218.32C216.139 258.82 214.37 260.589 214.37 262.77V285.64C214.37 287.822 216.139 289.59 218.32 289.59H233.01C235.192 289.59 236.96 287.822 236.96 285.64V262.77C236.96 260.589 235.192 258.82 233.01 258.82Z" fill="#EBEBEB"/>
<path d="M261.22 258.82H246.53C244.349 258.82 242.58 260.589 242.58 262.77V285.64C242.58 287.822 244.349 289.59 246.53 289.59H261.22C263.402 289.59 265.17 287.822 265.17 285.64V262.77C265.17 260.589 263.402 258.82 261.22 258.82Z" fill="#EBEBEB"/>
<path d="M289.43 258.82H274.74C272.558 258.82 270.79 260.589 270.79 262.77V285.64C270.79 287.822 272.558 289.59 274.74 289.59H289.43C291.612 289.59 293.38 287.822 293.38 285.64V262.77C293.38 260.589 291.612 258.82 289.43 258.82Z" fill="#EBEBEB"/>
<path d="M317.63 258.82H302.94C300.759 258.82 298.99 260.589 298.99 262.77V285.64C298.99 287.822 300.759 289.59 302.94 289.59H317.63C319.812 289.59 321.58 287.822 321.58 285.64V262.77C321.58 260.589 319.812 258.82 317.63 258.82Z" fill="#EBEBEB"/>
<path d="M345.84 258.82H331.15C328.969 258.82 327.2 260.589 327.2 262.77V285.64C327.2 287.822 328.969 289.59 331.15 289.59H345.84C348.022 289.59 349.79 287.822 349.79 285.64V262.77C349.79 260.589 348.022 258.82 345.84 258.82Z" fill="#EBEBEB"/>
<path d="M230.59 276.58C230.59 278.78 228.89 280.2 226.59 280.2C223.43 280.2 221.77 277.93 221.77 274.17C221.77 270.1 223.93 268.01 227.11 268.01C228.14 268.01 229.1 268.18 229.84 268.63L229.48 269.33C228.86 268.94 228.02 268.78 227.11 268.78C224.41 268.78 222.65 270.55 222.65 274.03C222.65 274.39 222.67 274.92 222.75 275.47C223.25 273.89 224.76 273 226.58 273C228.98 273 230.6 274.41 230.6 276.57L230.59 276.58ZM229.71 276.6C229.71 274.88 228.47 273.77 226.45 273.77C224.43 273.77 223.12 275.02 223.12 276.64C223.12 278.05 224.3 279.45 226.55 279.45C228.42 279.45 229.71 278.33 229.71 276.6Z" fill="#1478A3"/>
<path d="M258.49 276.79H255.97V280.12H255.11V276.79H248.26V276.15L254.78 268.1H255.76L249.36 276.01H255.13V273.07H255.97V276.01H258.49V276.78V276.79Z" fill="#1478A3"/>
<path d="M287.58 281.83C287.58 281.97 285.24 282.09 282.35 282.09C279.46 282.09 277.12 281.97 277.12 281.83C277.12 281.69 279.46 281.57 282.35 281.57C285.24 281.57 287.58 281.69 287.58 281.83Z" fill="#1478A3"/>
<path d="M209.85 227.7C211.203 227.7 212.3 226.603 212.3 225.25C212.3 223.897 211.203 222.8 209.85 222.8C208.497 222.8 207.4 223.897 207.4 225.25C207.4 226.603 208.497 227.7 209.85 227.7Z" fill="#263238"/>
<path d="M219.36 225.25C219.36 226.6 218.26 227.7 216.91 227.7C215.56 227.7 214.46 226.6 214.46 225.25C214.46 223.9 215.56 222.8 216.91 222.8C218.26 222.8 219.36 223.9 219.36 225.25Z" fill="#263238"/>
<path d="M223.84 227.7C225.193 227.7 226.29 226.603 226.29 225.25C226.29 223.897 225.193 222.8 223.84 222.8C222.487 222.8 221.39 223.897 221.39 225.25C221.39 226.603 222.487 227.7 223.84 227.7Z" fill="#263238"/>
<path d="M361.6 232.15C361.6 232.29 325.38 232.41 280.71 232.41C236.04 232.41 199.81 232.29 199.81 232.15C199.81 232.01 236.02 231.89 280.71 231.89C325.4 231.89 361.6 232.01 361.6 232.15Z" fill="#263238"/>
<path d="M179.89 105.91H101.99C99.7499 105.91 97.9399 107.72 97.9399 109.96V145.45C97.9399 147.69 99.7499 149.5 101.99 149.5H134.67L141.61 158.4L147.39 149.5H179.88C182.12 149.5 183.93 147.69 183.93 145.45V109.96C183.93 107.72 182.12 105.91 179.88 105.91H179.89Z" fill="white"/>
<path d="M179.89 105.91C179.89 105.91 180.02 105.91 180.28 105.91C180.53 105.94 180.92 105.97 181.39 106.16C181.86 106.34 182.43 106.65 182.93 107.2C183.44 107.74 183.88 108.54 184 109.52C184.07 113.39 184.06 119 184.09 126.12C184.09 129.68 184.11 133.61 184.12 137.87C184.12 140 184.12 142.22 184.13 144.51C184.12 145.08 184.17 145.67 184.05 146.28C183.93 146.88 183.68 147.46 183.31 147.96C182.58 148.97 181.37 149.65 180.08 149.69C170.28 149.7 159.29 149.72 147.4 149.74L147.6 149.63C145.78 152.43 143.82 155.45 141.82 158.53L141.63 158.82L141.42 158.55C139.23 155.74 136.87 152.72 134.47 149.65L134.67 149.75C125.67 149.75 116.25 149.75 106.59 149.75H103.22C102.65 149.74 102.12 149.77 101.51 149.72C100.92 149.65 100.34 149.46 99.8302 149.16C98.8002 148.57 98.0502 147.54 97.7902 146.38C97.6502 145.8 97.6902 145.21 97.6802 144.67V143.02C97.6802 138.63 97.6802 134.3 97.6802 130.04C97.6802 125.79 97.6802 121.61 97.6802 117.51C97.6802 115.46 97.6802 113.44 97.6802 111.44V109.94C97.6802 109.41 97.7802 108.89 97.9702 108.4C98.3502 107.42 99.0902 106.6 100.01 106.13C100.47 105.89 100.97 105.74 101.48 105.68C102 105.63 102.47 105.66 102.96 105.65C103.92 105.65 104.88 105.65 105.84 105.65C107.74 105.65 109.62 105.65 111.48 105.65C115.18 105.65 118.78 105.65 122.26 105.66C129.21 105.67 135.69 105.68 141.6 105.69C153.41 105.72 162.98 105.75 169.61 105.77C172.9 105.79 175.47 105.81 177.22 105.82C178.08 105.83 178.74 105.84 179.2 105.85C179.65 105.85 179.87 105.88 179.87 105.88C179.87 105.88 179.64 105.9 179.2 105.91C178.74 105.91 178.08 105.92 177.22 105.94C175.46 105.95 172.9 105.97 169.61 105.99C162.98 106.01 153.41 106.04 141.6 106.07C135.69 106.07 129.21 106.09 122.26 106.1C118.78 106.1 115.19 106.1 111.48 106.11C109.63 106.11 107.75 106.11 105.84 106.11C104.89 106.11 103.93 106.11 102.96 106.11C102.48 106.11 101.98 106.1 101.54 106.14C101.09 106.19 100.64 106.33 100.23 106.54C99.4102 106.96 98.7502 107.69 98.4202 108.56C98.2502 108.99 98.1702 109.46 98.1602 109.93V111.43C98.1602 113.43 98.1602 115.46 98.1602 117.5C98.1602 121.59 98.1602 125.77 98.1602 130.03C98.1602 134.28 98.1602 138.61 98.1602 143.01V144.66C98.1602 145.22 98.1302 145.75 98.2602 146.25C98.4802 147.26 99.1502 148.17 100.05 148.69C100.5 148.95 101 149.12 101.52 149.18C102.02 149.23 102.62 149.2 103.17 149.21C104.29 149.21 105.42 149.21 106.54 149.21C116.2 149.21 125.62 149.21 134.62 149.21H134.74L134.82 149.31C137.21 152.38 139.57 155.4 141.76 158.21L141.36 158.23C143.36 155.15 145.33 152.13 147.15 149.33L147.22 149.22H147.35C159.23 149.23 170.22 149.24 180.01 149.25C181.18 149.21 182.28 148.6 182.94 147.69C183.27 147.24 183.51 146.71 183.62 146.17C183.73 145.63 183.69 145.05 183.7 144.48C183.7 142.19 183.7 139.97 183.71 137.84C183.72 133.58 183.73 129.65 183.74 126.09C183.76 118.99 183.77 113.37 183.78 109.5C183.68 108.56 183.27 107.78 182.78 107.25C182.3 106.7 181.75 106.39 181.3 106.2C180.37 105.83 179.83 105.92 179.83 105.88L179.89 105.91Z" fill="#263238"/>
<path d="M126.35 115.92V117.23H125.49V115.91L124.05 113.53H124.96L125.95 115.18L126.94 113.53H127.78L126.34 115.92H126.35Z" fill="#263238"/>
<path d="M127.76 115.38C127.76 114.28 128.62 113.46 129.79 113.46C130.96 113.46 131.82 114.27 131.82 115.38C131.82 116.49 130.96 117.3 129.79 117.3C128.62 117.3 127.76 116.48 127.76 115.38ZM130.95 115.38C130.95 114.68 130.45 114.19 129.79 114.19C129.13 114.19 128.63 114.67 128.63 115.38C128.63 116.09 129.13 116.57 129.79 116.57C130.45 116.57 130.95 116.09 130.95 115.38Z" fill="#263238"/>
<path d="M132.44 115.61V113.53H133.3V115.57C133.3 116.27 133.61 116.57 134.13 116.57C134.65 116.57 134.96 116.28 134.96 115.57V113.53H135.81V115.61C135.81 116.7 135.19 117.3 134.13 117.3C133.07 117.3 132.45 116.7 132.45 115.61H132.44Z" fill="#263238"/>
<path d="M139.01 117.24L138.3 116.21H137.51V117.24H136.65V113.53H138.25C139.24 113.53 139.86 114.04 139.86 114.87C139.86 115.43 139.58 115.83 139.1 116.04L139.93 117.23H139.01V117.24ZM138.2 114.23H137.5V115.52H138.2C138.72 115.52 138.99 115.28 138.99 114.87C138.99 114.46 138.73 114.22 138.2 114.22V114.23Z" fill="#263238"/>
<path d="M141.81 115.38C141.81 114.26 142.67 113.46 143.82 113.46C144.46 113.46 145 113.69 145.34 114.12L144.79 114.63C144.54 114.34 144.23 114.2 143.86 114.2C143.17 114.2 142.67 114.69 142.67 115.39C142.67 116.09 143.16 116.58 143.86 116.58C144.23 116.58 144.54 116.43 144.79 116.14L145.34 116.65C144.99 117.08 144.46 117.31 143.81 117.31C142.66 117.31 141.8 116.51 141.8 115.39L141.81 115.38Z" fill="#263238"/>
<path d="M145.61 115.38C145.61 114.28 146.47 113.46 147.64 113.46C148.81 113.46 149.67 114.27 149.67 115.38C149.67 116.49 148.81 117.3 147.64 117.3C146.47 117.3 145.61 116.48 145.61 115.38ZM148.8 115.38C148.8 114.68 148.3 114.19 147.64 114.19C146.98 114.19 146.48 114.67 146.48 115.38C146.48 116.09 146.98 116.57 147.64 116.57C148.3 116.57 148.8 116.09 148.8 115.38Z" fill="#263238"/>
<path d="M150.32 113.53H152C153.21 113.53 154.04 114.26 154.04 115.38C154.04 116.5 153.21 117.23 152 117.23H150.32V113.52V113.53ZM151.96 116.53C152.7 116.53 153.18 116.09 153.18 115.38C153.18 114.67 152.7 114.23 151.96 114.23H151.18V116.53H151.96Z" fill="#263238"/>
<path d="M157.57 116.55V117.24H154.7V113.53H157.5V114.22H155.55V115.02H157.27V115.69H155.55V116.55H157.57Z" fill="#263238"/>
<path d="M172.28 121.13H109.59C107.629 121.13 106.04 122.719 106.04 124.68V137.92C106.04 139.881 107.629 141.47 109.59 141.47H172.28C174.241 141.47 175.83 139.881 175.83 137.92V124.68C175.83 122.719 174.241 121.13 172.28 121.13Z" fill="#F5F5F5"/>
<path d="M120.23 132.54C120.23 134.34 118.84 135.51 116.95 135.51C114.36 135.51 113 133.65 113 130.57C113 127.24 114.77 125.52 117.37 125.52C118.21 125.52 119 125.66 119.61 126.03L119.31 126.61C118.8 126.29 118.11 126.16 117.37 126.16C115.16 126.16 113.71 127.61 113.71 130.46C113.71 130.76 113.72 131.19 113.79 131.64C114.2 130.35 115.44 129.61 116.93 129.61C118.9 129.61 120.22 130.76 120.22 132.54H120.23ZM119.51 132.56C119.51 131.15 118.5 130.24 116.84 130.24C115.18 130.24 114.11 131.27 114.11 132.59C114.11 133.74 115.08 134.9 116.92 134.9C118.45 134.9 119.51 133.99 119.51 132.57V132.56Z" fill="#1478A3"/>
<path d="M133.3 132.71H131.23V135.44H130.53V132.71H124.92V132.19L130.27 125.59H131.07L125.82 132.08H130.55V129.67H131.24V132.08H133.31V132.71H133.3Z" fill="#1478A3"/>
<path d="M144.24 132.67C144.24 134.3 143.06 135.51 140.79 135.51C139.34 135.51 138 134.98 137.32 134.19L137.69 133.64C138.29 134.33 139.45 134.85 140.8 134.85C142.57 134.85 143.52 134.01 143.52 132.67C143.52 131.33 142.62 130.49 140.65 130.49H140.03V129.97L142.94 126.24H137.69V125.59H143.87V126.1L140.92 129.89C143.16 129.95 144.25 131.07 144.25 132.68L144.24 132.67Z" fill="#1478A3"/>
<path d="M156.14 125.59V126.1L151.91 135.44H151.12L155.31 126.24H149.78V128.13H149.08V125.6H156.14V125.59Z" fill="#1478A3"/>
<path d="M161.16 130.52C161.16 127.44 162.75 125.53 165.01 125.53C167.27 125.53 168.86 127.44 168.86 130.52C168.86 133.6 167.27 135.51 165.01 135.51C162.75 135.51 161.16 133.6 161.16 130.52ZM168.16 130.52C168.16 127.78 166.88 126.19 165.02 126.19C163.16 126.19 161.88 127.78 161.88 130.52C161.88 133.26 163.16 134.85 165.02 134.85C166.88 134.85 168.16 133.26 168.16 130.52Z" fill="#1478A3"/>
<path d="M375.59 388.07C388.68 382.51 403.84 371.58 410.6 358.18C396.48 363.85 384.03 374.49 375.59 388.07Z" fill="#263238"/>
<path d="M378.37 367.27C391.46 361.71 406.62 350.78 413.38 337.38C399.26 343.05 386.81 353.69 378.37 367.27Z" fill="#263238"/>
<path d="M382.16 347.04C395.25 341.48 410.41 330.55 417.17 317.15C403.05 322.82 390.6 333.46 382.16 347.04Z" fill="#263238"/>
<path d="M386.91 325.86C399.26 318.53 413.03 305.59 418.16 291.38C404.8 298.97 393.68 311.23 386.91 325.86Z" fill="#263238"/>
<path d="M391.99 309.65C400.99 297.88 409.38 280.36 409.27 265.18C399.42 277.6 393.27 293.42 391.99 309.65Z" fill="#263238"/>
<path d="M389.47 317.35C387.65 301.43 381.46 281.42 370.95 269.48C372.62 286.54 379.21 303.56 389.47 317.35Z" fill="#263238"/>
<path d="M385.24 334.76C382.04 318.35 373.94 298.05 362 286.54C365.14 304.15 373.41 321.3 385.24 334.76Z" fill="#263238"/>
<path d="M380.38 356C377.18 339.59 369.08 319.29 357.14 307.78C360.28 325.39 368.55 342.54 380.38 356Z" fill="#263238"/>
<path d="M376.48 382.06C373.28 365.65 365.18 345.35 353.24 333.84C356.38 351.45 364.65 368.6 376.48 382.06Z" fill="#263238"/>
<path d="M392.6 306.53C392.6 306.53 392.56 306.61 392.5 306.78C392.43 306.97 392.35 307.22 392.25 307.51C392.03 308.2 391.73 309.15 391.34 310.35C390.55 312.82 389.49 316.41 388.24 320.87C386.99 325.33 385.61 330.66 384.18 336.62C382.78 342.58 381.36 349.16 380.05 356.1C378.75 363.05 377.69 369.69 376.83 375.76C375.99 381.82 375.34 387.3 374.89 391.91C374.43 396.52 374.12 400.25 373.95 402.83C373.87 404.09 373.81 405.09 373.76 405.8C373.75 406.12 373.73 406.37 373.72 406.57C373.72 406.74 373.72 406.83 373.72 406.84C373.72 406.84 373.74 406.75 373.77 406.58C373.79 406.38 373.82 406.12 373.86 405.81C373.93 405.09 374.02 404.1 374.14 402.84C374.36 400.26 374.73 396.54 375.24 391.94C375.74 387.34 376.42 381.88 377.29 375.82C378.18 369.77 379.25 363.13 380.55 356.19C381.86 349.26 383.27 342.68 384.64 336.72C386.04 330.77 387.38 325.43 388.59 320.96C389.79 316.49 390.8 312.89 391.53 310.41C391.88 309.19 392.15 308.24 392.35 307.54C392.43 307.23 392.5 306.99 392.55 306.79C392.59 306.62 392.61 306.53 392.6 306.53Z" fill="#263238"/>
<path d="M369.21 396.74C374.76 385.11 378.8 368.77 376.07 356.01C369.91 368.35 367.47 382.83 369.21 396.74Z" fill="#455A64"/>
<path d="M359.98 381.69C365.53 370.06 369.57 353.72 366.84 340.96C360.68 353.3 358.24 367.78 359.98 381.69Z" fill="#455A64"/>
<path d="M351.7 366.38C357.25 354.75 361.29 338.41 358.56 325.65C352.4 337.99 349.96 352.47 351.7 366.38Z" fill="#455A64"/>
<path d="M343.53 349.87C347.66 337.56 349.73 320.79 345.52 308.51C340.87 321.61 340.17 336.31 343.53 349.87Z" fill="#455A64"/>
<path d="M338.23 336.35C337.82 323.26 333.97 306.86 325.84 297.19C326.04 311.22 330.44 325.15 338.23 336.35Z" fill="#455A64"/>
<path d="M340.68 342.84C331.05 333.75 316.41 324.73 303.24 323.55C313.38 333.46 326.69 340.32 340.68 342.84Z" fill="#455A64"/>
<path d="M347.18 356.61C336.39 348.06 320.35 340.03 306.49 340C317.88 349.36 332.35 355.27 347.18 356.61Z" fill="#455A64"/>
<path d="M355.29 373.22C344.5 364.67 328.46 356.64 314.6 356.61C325.99 365.97 340.46 371.88 355.29 373.22Z" fill="#455A64"/>
<path d="M366.6 392.34C355.81 383.79 339.77 375.76 325.91 375.73C337.3 385.09 351.77 391 366.6 392.34Z" fill="#455A64"/>
<path d="M336.97 333.97C336.97 333.97 336.98 334.05 337.03 334.19C337.09 334.36 337.16 334.56 337.25 334.81C337.47 335.39 337.77 336.17 338.15 337.16C338.94 339.2 340.14 342.14 341.68 345.73C344.76 352.93 349.32 362.75 354.99 373.27C357.83 378.53 360.68 383.46 363.35 387.9C366.04 392.32 368.53 396.27 370.71 399.52C372.87 402.78 374.67 405.39 375.95 407.17C376.57 408.03 377.06 408.71 377.43 409.21C377.59 409.42 377.72 409.59 377.82 409.73C377.91 409.85 377.96 409.9 377.97 409.9C377.97 409.9 377.94 409.83 377.86 409.7C377.76 409.55 377.65 409.37 377.51 409.15C377.17 408.64 376.7 407.94 376.11 407.06C374.88 405.25 373.13 402.61 371 399.33C368.87 396.05 366.41 392.1 363.74 387.67C361.1 383.22 358.27 378.29 355.43 373.04C349.77 362.53 345.16 352.75 342 345.59C340.42 342.01 339.17 339.1 338.33 337.08C337.91 336.1 337.58 335.33 337.34 334.76C337.23 334.52 337.14 334.32 337.07 334.16C337.01 334.03 336.97 333.96 336.96 333.96L336.97 333.97Z" fill="#263238"/>
<path d="M342.77 398.14H397.93V408.78H392.26L387.49 439.1H353.39L348.48 408.78H342.77V398.14Z" fill="#1478A3"/>
<path d="M342.77 408.55C342.77 408.41 355.03 408.29 370.15 408.29C385.27 408.29 397.53 408.4 397.53 408.55C397.53 408.7 385.27 408.81 370.15 408.81C355.03 408.81 342.77 408.7 342.77 408.55Z" fill="#263238"/>
<path d="M26.7998 439.11H17.8498L14.5298 398.81H25.0698L26.7998 439.11Z" fill="#263238"/>
<path d="M104.39 439.11H113.35L116.67 398.81H106.12L104.39 439.11Z" fill="#263238"/>
<path d="M122.82 403.91L7.57986 406.62L4.06986 332.19C3.72986 324.9 9.53986 318.81 16.8399 318.81H115.02C122.43 318.81 128.29 325.09 127.77 332.48L122.81 403.92L122.82 403.91Z" fill="#1478A3"/>
<path d="M128.73 331.93C128.73 331.93 128.62 331.95 128.41 331.96C128.17 331.96 127.86 331.98 127.47 331.99C126.61 332 125.39 332.02 123.84 332.04C120.65 332.05 116.1 332.07 110.48 332.09C99.1998 332.11 83.6198 331.98 66.4198 332.38C49.2098 332.95 33.6198 332.85 22.3398 332.68C16.6998 332.59 12.1398 332.48 8.97984 332.39C7.42984 332.34 6.20984 332.3 5.34984 332.27C4.95984 332.25 4.64984 332.24 4.40984 332.22C4.19984 332.21 4.08984 332.2 4.08984 332.19C4.08984 332.18 4.19984 332.17 4.40984 332.17C4.64984 332.17 4.95984 332.17 5.34984 332.17C6.20984 332.17 7.42984 332.19 8.97984 332.2C12.1698 332.23 16.7198 332.27 22.3398 332.33C33.6198 332.41 49.1998 332.45 66.4098 331.87C83.6198 331.47 99.2098 331.66 110.49 331.73C116.1 331.78 120.66 331.82 123.85 331.85C125.4 331.87 126.62 331.88 127.48 331.89C127.87 331.89 128.18 331.91 128.42 331.91C128.63 331.91 128.74 331.93 128.74 331.94L128.73 331.93Z" fill="#263238"/>
<path d="M46.11 319.97C46.14 320.14 42.5 320.21 38.63 322.22C34.73 324.18 32.54 327.09 32.42 326.96C32.37 326.93 32.85 326.16 33.85 325.11C34.85 324.06 36.42 322.77 38.4 321.76C40.38 320.75 42.35 320.24 43.78 320.05C45.22 319.86 46.12 319.92 46.12 319.98L46.11 319.97Z" fill="#263238"/>
<path d="M93.5002 184.64L107.59 210.37L128.23 198.83L138.26 202.14C138.26 202.14 112.94 229.59 108.83 230.99C104.72 232.39 96.9402 232.64 92.5002 227.08C88.4502 222.01 76.6602 195.4 76.6602 195.4L93.5002 184.64Z" fill="#AE7556"/>
<path d="M151.5 167.84C151.13 167.39 150.56 167.16 149.98 167.24L140.17 168.59C139.31 168.72 138.55 169.22 138.07 169.95L117.69 201.27L119.26 202.15L130.11 201.81L151.81 168.23L151.5 167.85V167.84Z" fill="#263238"/>
<path d="M144.55 171.91C144.76 172.09 145.13 172.02 145.37 171.74C145.61 171.46 145.64 171.09 145.43 170.9C145.22 170.71 144.85 170.79 144.61 171.07C144.37 171.35 144.34 171.72 144.55 171.91Z" fill="white"/>
<path d="M151.81 168.22C151.81 168.22 151.14 168.39 149.91 168.6C148.58 168.81 146.83 169.08 144.71 169.41C143.6 169.57 142.4 169.75 141.11 169.94C140.49 170 139.94 170.32 139.59 170.83C139.21 171.41 138.83 172.02 138.43 172.63C136.82 175.1 135.07 177.81 133.23 180.65C129.52 186.33 126.14 191.46 123.67 195.16C122.47 196.94 121.47 198.41 120.72 199.52C120.01 200.54 119.6 201.1 119.57 201.07C119.54 201.05 119.88 200.45 120.53 199.39C121.24 198.25 122.19 196.75 123.33 194.93C125.71 191.18 129.04 186.01 132.75 180.33C134.61 177.5 136.38 174.8 137.99 172.33C138.4 171.72 138.79 171.12 139.18 170.53C139.61 169.89 140.36 169.49 141.05 169.45C142.34 169.29 143.55 169.13 144.66 168.99C146.79 168.74 148.56 168.53 149.89 168.37C151.13 168.24 151.81 168.18 151.82 168.22H151.81Z" fill="#455A64"/>
<path d="M140.92 179.42C140.92 179.42 140.04 179.26 139.57 181.66C139.09 184.05 137.55 190.92 137.55 190.92L132.97 188.49L127.24 189.24C127.24 189.24 125.99 190.4 126.91 191.02C127.83 191.65 131.45 192.29 131.45 192.29L134.12 196.13L126.45 192.43C126.45 192.43 123.89 193.1 124.64 194.66C125.39 196.22 130.56 201.11 130.56 201.11L126.72 200.82L122.15 198.05C122.15 198.05 120.75 198.11 121.27 199.31C121.79 200.5 126.55 204.82 126.55 204.82L132.31 207.62C132.31 207.62 135.46 207.37 135.76 206.45C136.06 205.53 136.14 204.21 136.14 204.21C136.14 204.21 137.81 203.76 138.12 202.95C138.43 202.14 138.23 200.86 138.23 200.86C138.23 200.86 140.85 201.32 141.18 199.86C141.51 198.4 141.23 195.52 140.97 194.4C140.71 193.28 142.09 182.83 141.98 182.51C141.87 182.19 142.58 178.75 140.94 179.44L140.92 179.42Z" fill="#AE7556"/>
<path d="M135.95 206.44C135.97 206.51 135.41 206.75 134.45 206.91C133.49 207.07 132.11 207.08 130.65 206.74C129.19 206.39 127.97 205.76 127.18 205.18C126.39 204.61 126 204.14 126.05 204.09C126.16 203.94 127.98 205.52 130.79 206.17C133.58 206.86 135.92 206.27 135.95 206.45V206.44Z" fill="#664433"/>
<path d="M134.58 204.38C134.49 204.51 133.47 203.98 132.38 203.08C131.29 202.19 130.56 201.29 130.68 201.18C130.8 201.06 131.69 201.75 132.76 202.63C133.83 203.51 134.68 204.25 134.59 204.38H134.58Z" fill="#664433"/>
<path d="M137.61 199.4C137.52 199.53 136.51 199.01 135.49 198.06C134.46 197.12 133.86 196.15 133.99 196.05C134.12 195.95 134.9 196.72 135.89 197.63C136.87 198.54 137.71 199.26 137.61 199.4Z" fill="#664433"/>
<path d="M140.8 195.4C140.64 195.47 140.06 194.38 139.15 193.21C138.25 192.02 137.35 191.19 137.45 191.05C137.54 190.92 138.65 191.59 139.61 192.85C140.58 194.1 140.94 195.35 140.79 195.4H140.8Z" fill="#664433"/>
<path d="M144.7 380.86C144.7 380.86 144.77 380.52 144.67 379.91C144.57 379.31 144.32 378.43 143.71 377.5C143.55 377.27 143.4 377.03 143.14 376.8C142.9 376.58 142.47 376.41 142.07 376.56C141.87 376.63 141.67 376.81 141.6 377.04C141.52 377.27 141.56 377.5 141.62 377.68C141.75 378.06 141.95 378.33 142.12 378.65C142.49 379.28 142.8 379.9 143.27 380.6C143.51 380.96 144.05 381.26 144.54 381.17C145.03 381.11 145.42 380.87 145.77 380.63C146.45 380.13 147.06 379.57 147.58 378.96C147.84 378.66 148.08 378.35 148.29 378.03C148.49 377.72 148.73 377.4 148.83 376.97C148.92 376.55 148.76 376 148.29 375.81C147.81 375.64 147.41 375.88 147.15 376.07C146.6 376.52 146.28 376.99 145.94 377.44C145.31 378.34 144.95 379.16 144.76 379.74C144.57 380.32 144.52 380.65 144.55 380.66C144.65 380.7 144.97 379.37 146.26 377.68C146.58 377.28 146.98 376.79 147.42 376.46C147.65 376.3 147.93 376.19 148.1 376.28C148.28 376.34 148.38 376.62 148.32 376.88C148.26 377.15 148.06 377.44 147.85 377.74C147.64 378.04 147.41 378.33 147.16 378.61C146.66 379.18 146.09 379.71 145.44 380.18C145.13 380.4 144.79 380.59 144.48 380.62C144.16 380.66 143.92 380.53 143.71 380.26C143.31 379.69 142.94 378.98 142.57 378.39C142.39 378.08 142.18 377.78 142.09 377.53C141.99 377.26 142.05 377.08 142.24 377.01C142.67 376.83 143.1 377.32 143.39 377.74C144.61 379.47 144.59 380.91 144.71 380.87L144.7 380.86Z" fill="#263238"/>
<path d="M120.13 381.7L107.93 408.15L88.23 399.05L100.86 366.32L120.13 381.7Z" fill="#AE7556"/>
<path d="M110.23 406.38L103.1 419.98C103.1 419.98 121.35 438.85 119.64 443.07L76.7397 422.5L88.5297 395.23L110.24 406.39L110.23 406.38Z" fill="#455A64"/>
<path d="M90.7301 411.76C89.7901 411.59 88.7701 412.25 88.5601 413.18C88.3501 414.11 89.0101 415.16 89.9501 415.34C90.8901 415.53 92.1401 414.77 92.2401 413.83C92.3401 412.88 91.5001 411.7 90.5501 411.74" fill="#E0E0E0"/>
<g opacity="0.6">
<path d="M76.74 422.49L78.52 419.07L118.98 440.07C118.98 440.07 120.49 441.82 119.63 443.06L76.73 422.49H76.74Z" fill="white"/>
</g>
<path d="M103.9 420.09C103.79 420.3 102.7 419.89 101.35 420.07C99.9898 420.21 99.0299 420.87 98.8699 420.69C98.6999 420.56 99.6099 419.45 101.25 419.27C102.89 419.07 104.04 419.92 103.9 420.09Z" fill="#263238"/>
<path d="M107.51 424.11C107.46 424.34 106.38 424.26 105.25 424.8C104.1 425.31 103.46 426.18 103.25 426.07C103.04 426.01 103.48 424.71 104.91 424.06C106.33 423.4 107.6 423.9 107.51 424.1V424.11Z" fill="#263238"/>
<path d="M107.48 430.72C107.27 430.67 107.48 429.49 108.57 428.6C109.65 427.7 110.86 427.72 110.86 427.94C110.9 428.17 109.96 428.48 109.08 429.22C108.18 429.94 107.7 430.8 107.48 430.72Z" fill="#263238"/>
<path d="M105.95 414.85C105.77 415 104.95 414.25 103.73 413.76C102.52 413.25 101.41 413.2 101.38 412.97C101.33 412.76 102.6 412.42 104.03 413.01C105.47 413.59 106.13 414.73 105.95 414.85Z" fill="#263238"/>
<path d="M114.25 402.85L146.41 322.35C146.41 322.35 145.69 308.62 143.16 304.28C140.63 299.94 64.0102 274.64 64.0102 274.64C64.0102 274.64 44.4902 269.94 31.4802 274.64C18.4702 279.34 8.71024 295.6 10.5202 304.64C12.3302 313.68 19.9502 320.31 19.9502 320.31L76.3002 321.98L107.01 333.18L86.3302 392.45L114.25 402.83V402.85Z" fill="#263238"/>
<path d="M142.86 347.85L143.58 376.96L121.9 377.49L118.78 342.55L142.86 347.85Z" fill="#AE7556"/>
<path d="M144.87 374.36L144.47 389.71C144.47 389.71 169.17 398.58 169.5 403.13L121.93 403.61L120.47 373.94L144.87 374.37V374.36Z" fill="#455A64"/>
<path d="M129.75 387.79C128.83 388.05 128.21 389.09 128.43 390.02C128.65 390.95 129.71 391.59 130.63 391.35C131.55 391.11 132.34 389.88 132.02 388.98C131.69 388.08 130.42 387.39 129.58 387.85" fill="#E0E0E0"/>
<g opacity="0.6">
<path d="M121.93 403.6L122.02 399.74L167.6 400.72C167.6 400.72 169.73 401.62 169.5 403.11L121.93 403.59V403.6Z" fill="white"/>
</g>
<path d="M145.25 389.46C145.25 389.69 144.08 389.81 142.95 390.57C141.79 391.3 141.22 392.31 141 392.22C140.79 392.18 141.12 390.78 142.51 389.89C143.89 388.98 145.3 389.25 145.25 389.46Z" fill="#263238"/>
<path d="M150.26 391.47C150.32 391.69 149.31 392.1 148.53 393.09C147.72 394.06 147.53 395.12 147.3 395.11C147.08 395.15 146.91 393.79 147.9 392.58C148.88 391.36 150.25 391.25 150.25 391.47H150.26Z" fill="#263238"/>
<path d="M153.15 397.41C152.94 397.46 152.6 396.3 153.19 395.03C153.76 393.75 154.85 393.23 154.96 393.43C155.09 393.62 154.39 394.31 153.93 395.37C153.44 396.42 153.39 397.4 153.16 397.42L153.15 397.41Z" fill="#263238"/>
<path d="M144.77 383.85C144.67 384.06 143.61 383.75 142.29 383.85C140.98 383.93 139.96 384.38 139.84 384.18C139.7 384.01 140.69 383.14 142.24 383.04C143.79 382.93 144.88 383.66 144.77 383.84V383.85Z" fill="#263238"/>
<path d="M130.2 267.01C130.2 267.01 143.19 265.97 144.64 280.07C146.09 294.17 147.51 359.95 147.51 359.95L117.15 362.48L112.45 295.26L64.02 274.66C64.02 274.66 121.53 265.22 130.21 267.02L130.2 267.01Z" fill="#263238"/>
<path d="M76.6501 247.99C76.6501 247.99 84.5301 270.1 83.0301 272.56C81.5301 275.02 61.2501 285.16 61.2501 285.16L10.5201 304.64C10.5201 304.64 5.31006 296.35 5.31006 283.62C5.31006 270.89 22.9601 247.98 22.9601 247.98H76.6501V247.99Z" fill="#263238"/>
<path d="M61.6099 273.52C61.6099 273.52 61.6899 273.57 61.8499 273.65C62.0399 273.74 62.2699 273.85 62.5699 273.98C63.2399 274.28 64.1799 274.7 65.3799 275.23C67.8699 276.32 71.4499 277.87 75.9299 279.82C84.9799 283.72 97.6599 289.18 112.34 295.49L112.18 295.26C112.64 301.9 113.14 309.07 113.65 316.49C114.88 333.83 116.02 349.83 116.92 362.48L116.94 362.71L117.17 362.69C126.4 361.88 133.98 361.21 139.29 360.75C141.9 360.51 143.95 360.31 145.38 360.18C146.05 360.11 146.58 360.05 146.97 360.01C147.33 359.97 147.51 359.94 147.51 359.93C147.51 359.92 147.32 359.93 146.96 359.94C146.57 359.96 146.04 360 145.36 360.04C143.93 360.15 141.87 360.3 139.26 360.49C133.95 360.91 126.37 361.51 117.13 362.24L117.37 362.45C116.5 349.79 115.4 333.8 114.21 316.45C113.69 309.03 113.18 301.86 112.72 295.22V295.05L112.56 294.99C97.8499 288.75 85.1399 283.35 76.0699 279.5C71.5699 277.61 67.9699 276.1 65.4599 275.05C64.2399 274.55 63.2899 274.16 62.6199 273.88C62.3099 273.76 62.0699 273.66 61.8799 273.59C61.7099 273.53 61.6299 273.5 61.6199 273.51L61.6099 273.52Z" fill="#455A64"/>
<path d="M21.2599 275.73C21.2599 275.73 21.7799 275.63 22.6799 275.34C23.6899 275.02 24.9699 274.6 26.4999 274.11C29.7199 273.09 34.1899 271.66 39.2799 270.88C44.3699 270.09 49.0799 270.34 52.3699 271.05C55.6699 271.73 57.5699 272.68 57.6099 272.57C57.6199 272.54 57.1599 272.28 56.2899 271.9C55.4199 271.52 54.1099 271.06 52.4499 270.66C49.1399 269.84 44.3399 269.53 39.1899 270.32C34.0399 271.11 29.5599 272.61 26.3599 273.73C24.7599 274.3 23.4799 274.78 22.5899 275.13C21.7099 275.48 21.2299 275.69 21.2399 275.73H21.2599Z" fill="#455A64"/>
<path d="M28.4302 264.08C28.4402 264.17 30.1302 263.84 32.8702 264.05C34.2402 264.15 35.8602 264.35 37.6702 264.56C39.4802 264.78 41.4602 265.02 43.5202 265.41C47.6402 266.14 51.1902 267.58 53.4602 269.1C55.7502 270.59 56.8302 271.95 56.9102 271.88C56.9302 271.86 56.7002 271.5 56.1702 270.93C55.6402 270.36 54.8302 269.57 53.6802 268.78C51.4202 267.14 47.7902 265.61 43.6202 264.87C41.5402 264.48 39.5402 264.25 37.7302 264.06C35.9202 263.88 34.2802 263.71 32.8902 263.66C31.5002 263.61 30.3702 263.69 29.6102 263.81C28.8402 263.93 28.4302 264.06 28.4402 264.09L28.4302 264.08Z" fill="#455A64"/>
<path d="M50.84 86.43C45 85.44 39.87 87.69 34.95 90.98C30.03 94.27 26.32 99.24 24.18 104.76C21.93 110.58 21.38 117.12 23.11 123.11C24.84 129.1 28.95 134.46 34.51 137.29C42.1 141.15 51.82 139.8 58.61 134.67C65.4 129.53 69.29 121.04 69.61 112.53C69.83 106.67 68.43 100.67 65.16 95.8C61.88 90.93 56.65 87.29 50.85 86.44" fill="#263238"/>
<path d="M34.2399 106.28C35.0899 104.05 34.7599 101.55 35.0999 99.1899C35.8399 93.9799 40.0399 89.7999 44.8999 87.7699C49.4199 85.8799 54.9399 86.2899 60.3799 88.0499C64.1099 89.2599 67.6199 91.3599 70.1099 94.3899C73.4099 98.4099 74.5699 104.1 73.1199 109.09L46.4499 105.21C43.9499 107.28 41.3999 109.38 38.3699 110.53C37.4799 110.87 36.5299 111.12 35.5899 110.97C34.6499 110.82 33.7399 110.18 33.5199 109.26C33.2799 108.25 33.8799 107.26 34.2499 106.29L34.2399 106.28Z" fill="#263238"/>
<path d="M60.9499 95.41L37.6699 100.34C35.4199 100.49 33.6499 102.34 33.6099 104.6L33.8899 154.99C33.9099 158.43 35.0599 161.77 37.1699 164.49L39.3899 167.35C44.4499 173.88 54.7099 173.22 58.5699 165.92C58.8399 165.41 59.0299 164.96 59.1099 164.6C59.1899 164.15 59.3099 163.85 59.3299 163.46L59.7699 158.55C59.9999 154.06 60.0299 149.51 60.0299 149.55C60.0299 149.55 69.5599 148.35 71.9999 136.07C73.2099 129.96 73.2999 119.88 73.0999 111.63C72.9199 104.2 68.3599 94.92 60.9499 95.41Z" fill="#AE7556"/>
<path d="M69.5601 121.08C69.5601 121.92 68.8501 122.61 67.9701 122.62C67.1001 122.63 66.3901 121.97 66.3901 121.13C66.3901 120.29 67.1001 119.6 67.9801 119.59C68.8501 119.58 69.5601 120.24 69.5601 121.08Z" fill="#263238"/>
<path d="M70.71 116.78C70.51 116.98 69.34 116.04 67.64 115.98C65.94 115.89 64.65 116.72 64.48 116.51C64.39 116.41 64.61 116.05 65.17 115.67C65.72 115.3 66.65 114.95 67.71 114.99C68.77 115.04 69.65 115.46 70.15 115.88C70.66 116.3 70.82 116.68 70.72 116.77L70.71 116.78Z" fill="#263238"/>
<path d="M54.2799 120.7C54.2799 121.54 53.5699 122.23 52.6899 122.24C51.8199 122.25 51.1099 121.59 51.1099 120.75C51.1099 119.91 51.8199 119.22 52.6999 119.21C53.5699 119.2 54.2799 119.86 54.2799 120.7Z" fill="#263238"/>
<path d="M54.53 116.37C54.32 116.57 53.16 115.63 51.45 115.57C49.75 115.48 48.46 116.31 48.29 116.1C48.2 116 48.42 115.64 48.98 115.26C49.53 114.89 50.46 114.54 51.52 114.58C52.58 114.63 53.46 115.05 53.96 115.47C54.47 115.89 54.63 116.27 54.53 116.36V116.37Z" fill="#263238"/>
<path d="M59.6401 129.33C59.6401 129.23 60.7001 129.09 62.4301 128.94C62.8701 128.91 63.2801 128.84 63.3701 128.55C63.4801 128.24 63.3201 127.76 63.1301 127.25C62.7601 126.18 62.3801 125.06 61.9701 123.89C60.3701 119.1 59.2201 115.17 59.4201 115.11C59.6101 115.05 61.0701 118.88 62.6801 123.67C63.0601 124.85 63.4301 125.98 63.7801 127.05C63.9301 127.55 64.1901 128.12 63.9401 128.77C63.8101 129.09 63.4801 129.31 63.2001 129.38C62.9201 129.45 62.6701 129.45 62.4601 129.45C60.7301 129.48 59.6601 129.45 59.6501 129.35L59.6401 129.33Z" fill="#263238"/>
<path d="M60.0399 149.55C60.0399 149.55 51.7099 149.76 43.6699 144.5C43.6699 144.5 47.4999 153.21 59.9099 152.54L60.0499 149.56L60.0399 149.55Z" fill="#664433"/>
<path d="M58.7598 133.41C58.1798 132.58 57.1198 132.09 56.0498 132.16C55.3098 132.21 54.5498 132.54 54.0698 133.12C53.5998 133.7 53.4698 134.56 53.8598 135.15C54.2898 135.81 55.2498 136 56.0698 135.8C56.8898 135.6 57.6098 135.09 58.2998 134.58C58.4898 134.44 58.6798 134.29 58.8098 134.09C58.9298 133.89 58.9698 133.63 58.8298 133.46" fill="#664433"/>
<path d="M54.5802 130.32C54.8602 130.32 54.7902 132.17 56.3202 133.54C57.8502 134.92 59.8302 134.79 59.8302 135.05C59.8502 135.17 59.3802 135.39 58.5402 135.38C57.7202 135.38 56.5402 135.07 55.6002 134.23C54.6602 133.39 54.2902 132.3 54.2602 131.53C54.2202 130.75 54.4402 130.3 54.5702 130.32H54.5802Z" fill="#263238"/>
<path d="M54.4299 111.31C54.2399 111.77 52.5499 111.48 50.5399 111.64C48.5299 111.76 46.8899 112.29 46.6399 111.86C46.5299 111.66 46.8299 111.23 47.4999 110.81C48.1599 110.39 49.2099 110 50.4199 109.91C51.6299 109.83 52.7199 110.06 53.4299 110.38C54.1499 110.7 54.5099 111.08 54.4299 111.3V111.31Z" fill="#263238"/>
<path d="M70.5096 109.31C70.1996 109.69 69.0396 109.24 67.6196 109.16C66.2096 109.04 64.9996 109.32 64.7396 108.9C64.6296 108.7 64.8296 108.32 65.3696 107.97C65.8996 107.62 66.7696 107.36 67.7396 107.43C68.7096 107.5 69.5396 107.88 70.0096 108.3C70.4896 108.72 70.6396 109.12 70.4996 109.31H70.5096Z" fill="#263238"/>
<path d="M29.9696 102.69C32.3796 95.6 42.9196 85.94 50.3796 86.61L62.1696 93.9999C61.3696 98.0499 58.1596 101.53 54.1796 102.65C52.0596 103.25 49.5096 103.38 48.2196 105.16C46.8996 106.99 47.5996 109.7 46.3696 111.58C44.6696 114.19 40.1496 113.98 38.8596 116.82C38.2896 118.06 38.5496 119.56 37.9596 120.79C37.1796 122.43 32.9496 124.44 31.2296 123.86C29.5096 123.28 29.5596 120.33 29.0296 118.77C28.1196 116.11 28.5396 114.75 28.8896 113.28C29.7096 109.8 28.8296 106.06 29.9796 102.68L29.9696 102.69Z" fill="#263238"/>
<path d="M36.3098 125.43C36.3398 124.51 35.3598 122.3 34.4598 122.12C32.0498 121.65 27.6698 121.67 27.3898 127.83C27.0098 136.25 35.5398 134.9 35.5698 134.66C35.5898 134.47 36.1998 128.61 36.3098 125.43Z" fill="#AE7556"/>
<path d="M33.1397 131.35C33.1397 131.35 32.9897 131.45 32.7397 131.55C32.4897 131.65 32.0697 131.71 31.6397 131.52C30.7697 131.15 30.0797 129.71 30.1097 128.19C30.1197 127.42 30.3197 126.7 30.6197 126.11C30.8997 125.51 31.3197 125.09 31.7697 125.03C32.2197 124.95 32.5197 125.23 32.6197 125.47C32.7197 125.71 32.6597 125.88 32.7097 125.89C32.7297 125.91 32.8997 125.76 32.8397 125.41C32.8097 125.24 32.7197 125.04 32.5297 124.87C32.3397 124.7 32.0397 124.6 31.7297 124.62C31.0797 124.64 30.4697 125.21 30.1397 125.86C29.7797 126.51 29.5397 127.32 29.5297 128.18C29.5097 129.88 30.2997 131.51 31.4997 131.91C32.0797 132.09 32.5897 131.94 32.8497 131.75C33.1197 131.55 33.1697 131.37 33.1397 131.35Z" fill="#664433"/>
<path d="M28.17 100.5C28.2 97.87 24.91 96.14 22.34 95.55C19.77 94.95 17.06 95.73 14.75 97C13.4 97.74 12.04 98.79 11.74 100.31C11.44 101.82 12.89 103.62 14.33 103.08C11.57 104.03 10.16 107.72 11.6 110.26C13.04 112.8 16.93 113.5 19.16 111.62C18.44 114.03 16.87 116.18 14.78 117.6C19.11 118.22 23.71 116.37 26.41 112.92C29.11 109.48 29.8 104.57 28.16 100.51L28.17 100.5Z" fill="#263238"/>
<path d="M22.3199 113.9C22.2599 113.9 22.0299 112.95 22.0099 111.37C21.9799 109.79 22.2099 107.59 22.9799 105.29C23.7599 103 24.8999 101.1 25.8899 99.86C26.8699 98.62 27.6299 97.99 27.6699 98.04C27.8299 98.15 24.9999 100.95 23.5099 105.46C21.9599 109.96 22.5199 113.89 22.3299 113.89L22.3199 113.9Z" fill="#1478A3"/>
<path d="M59.72 91.4499C60.49 94.8799 65.71 99.2699 67.99 101.94C72.35 107.03 73.21 108.72 73.17 120.11C75.23 116.18 76.81 112.33 76.65 107.89C76.49 103.45 74.86 99.0099 71.77 95.8199C68.69 92.6299 64.11 90.8199 59.71 91.4499" fill="#263238"/>
<path d="M95.43 185.14C95.43 185.14 86.36 170.01 83.84 166.95C81.48 164.08 78.44 162.39 76.41 161.5C75.28 161.01 74.09 160.67 72.88 160.46L59.83 157.57C59.83 157.57 59.81 166.48 50.47 167.03C41.14 167.58 33.28 154.58 33.28 154.58C33.28 154.58 18.2 156.91 14.59 158.77C10.98 160.63 5.31 162.98 2.19 178.61L0 193.89L26 196.29L28.49 234.92L41.38 243.9C41.38 243.9 77.13 253.19 79.41 253.81C81.69 254.42 82.45 196.29 82.45 196.29C82.45 196.29 91.63 190.35 95.43 185.15V185.14Z" fill="#263238"/>
<path d="M78.3198 178.64C78.3198 178.64 78.5298 179.02 78.8198 179.75C79.1198 180.48 79.4998 181.55 79.9198 182.89C80.7698 185.57 81.6998 189.36 82.2198 193.63C82.7398 197.9 82.7498 201.8 82.5798 204.61C82.4898 206.01 82.3898 207.15 82.2698 207.92C82.1598 208.7 82.0898 209.13 82.0498 209.12C82.0098 209.12 82.0198 208.68 82.0698 207.9C82.1198 207.12 82.1698 205.99 82.2098 204.59C82.2898 201.8 82.2098 197.93 81.7098 193.69C81.1898 189.46 80.3198 185.69 79.5698 182.99C79.1998 181.64 78.8698 180.56 78.6298 179.81C78.3998 179.06 78.2898 178.64 78.3198 178.63V178.64Z" fill="#455A64"/>
<path d="M77.21 241.93L28.26 231.27L26 196.28L4.22998 194.27C4.22998 194.27 5.03998 218.19 5.86998 225.3C7.06998 235.53 13.12 249.48 16.66 252.27C20.2 255.06 79.41 253.8 79.41 253.8L77.21 241.92V241.93Z" fill="#AE7556"/>
<path d="M105 248.27C104.66 248.95 103.94 249.4 103.18 249.33C103.03 249.32 102.87 249.29 102.71 249.23C101.63 248.88 101.73 246.68 101.73 246.68L96.54 245.83C96.54 245.83 89.79 250.18 87.39 253.06C84.99 255.94 78.87 253.61 78.87 253.61L76.75 242.55L86.3 233.91C86.3 233.91 85.71 234.42 86.37 232.81C87.03 231.19 90.03 231.81 90.03 231.81C90.5 231.01 92.46 230.73 92.46 230.73L100.84 231.7C102.57 231.9 104.11 232.87 105.04 234.34L108.58 239.95C108.58 239.95 110.45 243.99 110.15 244.93C109.7 246.35 108.2 246.03 108.2 246.03C108.2 246.03 107.79 248.68 107.09 248.78C106.39 248.87 105.02 248.28 105.02 248.28L105 248.27Z" fill="#AE7556"/>
<path d="M87.17 240.33C87.17 240.42 88.29 240.31 90.08 240.39C91.86 240.48 94.33 240.79 96.92 241.67C98.21 242.1 99.4 242.63 100.44 243.18C101.45 243.75 102.51 244.22 102.83 244.96C102.99 245.32 102.92 245.69 102.74 245.96C102.56 246.23 102.32 246.41 102.11 246.49C101.67 246.67 101.39 246.55 101.38 246.6C101.36 246.61 101.64 246.83 102.18 246.69C102.44 246.62 102.74 246.44 102.99 246.13C103.24 245.83 103.38 245.3 103.19 244.82C103.01 244.33 102.59 243.95 102.15 243.64C101.69 243.34 101.22 243.04 100.68 242.75C99.63 242.16 98.41 241.61 97.09 241.17C94.45 240.27 91.91 240.01 90.09 240.02C88.27 240.04 87.16 240.28 87.17 240.34V240.33Z" fill="#664433"/>
<path d="M86.5898 245.67C86.5898 245.83 90.0098 245.69 94.1998 245.93C98.3898 246.16 101.76 246.69 101.79 246.53C101.8 246.46 100.97 246.24 99.6098 246C98.2498 245.76 96.3499 245.52 94.2299 245.4C92.1199 245.28 90.1998 245.31 88.8198 245.4C87.4398 245.48 86.5898 245.61 86.5898 245.68V245.67Z" fill="#664433"/>
<path d="M104.95 248.05C104.95 248.05 105.02 247.74 105.06 247.16C105.09 246.58 105.13 245.75 105.06 244.71C105.02 244.19 104.97 243.62 104.83 243.01C104.7 242.4 104.41 241.75 104.01 241.18C103.26 240.04 102.21 238.85 100.87 237.97C99.5399 237.09 98.2099 236.35 96.8599 235.95C95.5199 235.55 94.2699 235.45 93.2399 235.4C92.1999 235.36 91.3699 235.39 90.7899 235.4C90.2099 235.42 89.8999 235.45 89.8999 235.49C89.8999 235.58 91.1799 235.62 93.2199 235.77C94.2399 235.86 95.4499 236 96.7099 236.41C97.9699 236.81 99.2699 237.56 100.56 238.4C101.85 239.26 102.83 240.35 103.6 241.45C104.41 242.51 104.56 243.72 104.69 244.73C104.89 246.76 104.84 248.05 104.96 248.04L104.95 248.05Z" fill="#664433"/>
<path d="M92.8501 232.86C92.8501 232.94 94.1001 232.97 96.1001 233.2C98.0301 233.5 101.11 233.64 102.87 236.29C104.77 238.71 106.39 240.99 107.1 242.86C107.85 244.72 107.78 246.01 107.89 246C107.92 246 107.97 245.68 107.94 245.11C107.92 244.54 107.79 243.7 107.45 242.73C106.81 240.75 105.2 238.39 103.29 235.96C102.8 235.35 102.27 234.77 101.66 234.31C101.05 233.84 100.34 233.57 99.6901 233.38C98.3701 233.01 97.1501 232.9 96.1401 232.82C94.1101 232.68 92.8501 232.79 92.8501 232.85V232.86Z" fill="#664433"/>
<path d="M89.2198 251.28C89.2198 251.28 89.3998 251.16 89.7198 250.9C90.0798 250.61 90.5398 250.24 91.1198 249.77C92.3598 248.81 94.1998 247.45 96.6198 245.98L96.4998 246C98.0498 246.26 99.7898 246.56 101.68 246.88L101.5 246.66C101.49 247.08 101.51 247.5 101.6 247.93C101.69 248.35 101.82 248.81 102.19 249.18C102.38 249.36 102.65 249.47 102.88 249.5C103.11 249.56 103.36 249.58 103.61 249.54C104.1 249.47 104.57 249.21 104.9 248.83C104.98 248.74 105.06 248.63 105.13 248.52L105.18 248.44L105.2 248.4V248.38H105.21C105.28 248.35 104.63 248.59 104.91 248.49H104.92L105.08 248.56C105.3 248.65 105.52 248.73 105.75 248.8C105.98 248.87 106.21 248.93 106.46 248.98C106.58 249 106.71 249.02 106.85 249.02C106.98 249.02 107.13 249.02 107.33 248.93C107.62 248.72 107.73 248.48 107.84 248.24C107.94 248 108.03 247.77 108.1 247.53C108.24 247.05 108.35 246.57 108.43 246.06L108.13 246.27C108.8 246.39 109.6 246.23 110.06 245.61C110.27 245.32 110.44 244.97 110.42 244.57C110.4 244.21 110.32 243.89 110.24 243.57C109.88 242.3 109.36 241.08 108.81 239.84L108.8 239.81C108.2 238.86 107.56 237.84 106.91 236.82C106.51 236.18 106.11 235.55 105.71 234.92C105.31 234.31 104.96 233.63 104.4 233.08C103.86 232.54 103.22 232.11 102.52 231.83C101.83 231.53 101.06 231.46 100.38 231.39C97.5998 231.08 94.9598 230.78 92.4798 230.5H92.4498H92.4198C91.9298 230.58 91.4798 230.7 91.0398 230.86C90.6098 231.04 90.1498 231.23 89.8398 231.7L90.1298 231.61C89.2398 231.25 88.2198 231.24 87.4398 231.76C86.6598 232.27 86.2998 233.1 86.1098 233.88L86.1698 233.77C83.4298 236.24 81.1898 238.25 79.5898 239.69C78.8498 240.37 78.2598 240.91 77.8198 241.32C77.4198 241.7 77.2098 241.9 77.2298 241.92C77.2398 241.93 77.4698 241.76 77.8998 241.41C78.3598 241.02 78.9798 240.5 79.7398 239.86C81.3698 238.45 83.6498 236.49 86.4398 234.07L86.4898 234.03L86.5098 233.96C86.6898 233.27 87.0398 232.52 87.6798 232.12C88.3098 231.7 89.2098 231.71 89.9498 232.02L90.1298 232.1L90.2398 231.93C90.4198 231.65 90.8198 231.44 91.2198 231.29C91.6198 231.14 92.0698 231.03 92.5098 230.96H92.4498C94.9198 231.25 97.5698 231.56 100.34 231.89C101.05 231.97 101.71 232.03 102.34 232.31C102.97 232.56 103.55 232.95 104.04 233.44C104.53 233.92 104.87 234.56 105.28 235.19C105.68 235.82 106.07 236.45 106.48 237.09C107.13 238.11 107.77 239.13 108.37 240.08L108.35 240.05C108.9 241.26 109.41 242.48 109.76 243.69C109.84 243.99 109.92 244.3 109.93 244.57C109.96 244.81 109.84 245.07 109.68 245.28C109.38 245.71 108.77 245.84 108.26 245.76L108 245.72L107.96 245.97C107.88 246.44 107.78 246.92 107.65 247.37C107.53 247.8 107.34 248.32 107.11 248.49C107.1 248.49 107.01 248.52 106.9 248.51C106.8 248.51 106.69 248.49 106.58 248.48C106.36 248.44 106.15 248.39 105.93 248.32C105.71 248.25 105.5 248.18 105.29 248.1L105.14 248.04C105.41 247.94 104.77 248.18 104.83 248.15V248.17L104.81 248.2L104.77 248.27C104.72 248.35 104.66 248.44 104.59 248.51C104.33 248.81 103.97 249.02 103.59 249.08C103.4 249.11 103.21 249.1 103.02 249.05C102.81 249.02 102.68 248.96 102.55 248.85C102.06 248.34 101.99 247.42 101.98 246.68V246.49L101.8 246.46C99.9098 246.16 98.1598 245.89 96.6098 245.65H96.5398L96.4898 245.67C94.0598 247.2 92.2498 248.61 91.0498 249.61C90.4498 250.12 89.9998 250.53 89.6998 250.81C89.3998 251.1 89.2598 251.25 89.2698 251.26L89.2198 251.28Z" fill="#664433"/>
<path d="M168.51 216.1L104.03 216.62C101.94 216.62 99.9402 217.62 99.6302 219.69L92.5802 266.68H59.3702C58.3002 266.68 57.4302 267.55 57.4302 268.62C57.4302 269.69 58.3002 270.56 59.3702 270.56H165.44L172.69 220.96C173.08 218.4 171.1 216.1 168.51 216.1Z" fill="#E0E0E0"/>
<path d="M168.51 216.1C168.51 216.1 168.86 216.06 169.53 216.2C170.18 216.35 171.19 216.75 171.99 217.83C172.39 218.36 172.69 219.07 172.79 219.89C172.9 220.72 172.66 221.6 172.55 222.54C172.28 224.44 171.97 226.63 171.62 229.08C170.2 238.93 168.16 253.13 165.64 270.59L165.62 270.76H165.45C138 270.78 101.93 270.8 62.5402 270.82H59.7702C59.3402 270.84 58.7502 270.82 58.3002 270.54C57.8402 270.29 57.4902 269.87 57.3102 269.38C56.9202 268.4 57.3902 267.19 58.3102 266.7C58.7502 266.43 59.3402 266.41 59.7602 266.43H61.1202C64.7502 266.43 68.3502 266.43 71.9002 266.43C79.0002 266.43 85.9102 266.43 92.5802 266.43L92.3302 266.64C94.8702 249.81 97.2302 234.11 99.3602 220.02C99.4302 219.13 99.8402 218.16 100.55 217.56C101.25 216.94 102.14 216.61 103.02 216.47C103.92 216.33 104.77 216.41 105.62 216.38C106.47 216.38 107.31 216.37 108.15 216.36C111.5 216.34 114.74 216.32 117.86 216.29C124.1 216.25 129.87 216.21 135.11 216.18C145.58 216.13 153.92 216.08 159.67 216.05C162.53 216.05 164.73 216.05 166.24 216.04C166.98 216.04 167.54 216.04 167.94 216.04C168.32 216.04 168.52 216.06 168.52 216.06C168.52 216.06 168.33 216.08 167.94 216.09C167.54 216.09 166.98 216.11 166.24 216.13C164.73 216.15 162.52 216.18 159.67 216.22C153.92 216.28 145.58 216.38 135.11 216.49C129.87 216.54 124.1 216.6 117.86 216.66C114.74 216.69 111.5 216.72 108.15 216.75C107.31 216.75 106.47 216.77 105.62 216.77C104.77 216.8 103.9 216.73 103.08 216.86C102.26 216.99 101.45 217.3 100.83 217.85C100.2 218.4 99.8602 219.17 99.7802 220.05C97.6802 234.14 95.3402 249.84 92.8202 266.68L92.7902 266.89H92.5702C85.9102 266.89 78.9902 266.89 71.8902 266.89C68.3402 266.89 64.7502 266.89 61.1102 266.89H59.7502C59.2702 266.88 58.9102 266.89 58.5502 267.1C57.8402 267.47 57.4902 268.39 57.7902 269.14C57.9302 269.51 58.2002 269.84 58.5502 270.03C58.9102 270.24 59.2702 270.26 59.7602 270.24C60.6802 270.24 61.6002 270.24 62.5302 270.24C101.92 270.26 137.99 270.29 165.44 270.3L165.24 270.47C167.83 253.02 169.93 238.83 171.39 228.99C171.76 226.53 172.09 224.35 172.37 222.45C172.48 221.5 172.73 220.63 172.63 219.84C172.55 219.05 172.26 218.36 171.88 217.84C171.12 216.77 170.13 216.36 169.5 216.2C168.85 216.04 168.5 216.07 168.5 216.05L168.51 216.1Z" fill="#263238"/>
<path d="M133.54 246.78C135.771 246.78 137.58 244.971 137.58 242.74C137.58 240.509 135.771 238.7 133.54 238.7C131.309 238.7 129.5 240.509 129.5 242.74C129.5 244.971 131.309 246.78 133.54 246.78Z" fill="white"/>
<path d="M95.2003 270.13C95.2903 270.15 97.3403 258.18 99.7803 243.41C102.22 228.63 104.12 216.64 104.03 216.63C103.94 216.61 101.89 228.58 99.4503 243.36C97.0103 258.13 95.1103 270.12 95.2003 270.14V270.13Z" fill="#263238"/>
</g>
<defs>
<clipPath id="clip0_62_4573">
<rect width="419.07" height="443.06" fill="white"/>
</clipPath>
</defs>
</svg>
