<svg width="26" height="26" viewBox="0 0 26 26" fill="none" xmlns="http://www.w3.org/2000/svg">
<path d="M13 0.731445C8.45001 0.731445 4.79376 4.75332 4.79376 9.70957V16.2908C4.79376 21.2471 8.49064 25.2689 13 25.2689C15.1125 25.2689 17.1031 24.4158 18.6063 22.8721C20.3125 21.1658 21.2469 18.7283 21.2063 16.2502V9.70957C21.2063 4.75332 17.5094 0.731445 13 0.731445ZM19.3781 9.70957V10.1564H13.975V2.64082C17.0625 3.16895 19.3781 6.13457 19.3781 9.70957ZM12.1469 2.6002V10.1564H6.58126V9.70957C6.58126 6.05332 9.01876 3.04707 12.1469 2.6002ZM17.3063 21.6127C16.1281 22.7908 14.5844 23.4408 13 23.4408C9.46564 23.4408 6.62189 20.2314 6.62189 16.2908V11.9846H19.4188V16.2908C19.4188 18.3221 18.6469 20.2721 17.3063 21.6127Z" fill="#F2994A"/>
</svg>
