<svg width="26" height="26" viewBox="0 0 26 26" fill="none" xmlns="http://www.w3.org/2000/svg">
<path d="M8.49065 11.8623C11.0094 11.8623 13.0813 9.87168 13.0813 7.39356C13.0813 4.91543 11.0094 2.9248 8.49065 2.9248C5.9719 2.9248 3.90002 4.91543 3.90002 7.39356C3.90002 9.87168 5.9719 11.8623 8.49065 11.8623ZM8.49065 4.79355C9.99377 4.79355 11.2531 5.97168 11.2531 7.43418C11.2531 8.89668 10.0344 10.0748 8.49065 10.0748C6.9469 10.0748 5.72815 8.89668 5.72815 7.43418C5.72815 5.97168 6.98752 4.79355 8.49065 4.79355Z" fill="#3758F9"/>
<path d="M18.6875 13.8125C20.8813 13.8125 22.6281 12.1063 22.6281 9.95312C22.6281 7.8 20.8406 6.09375 18.6875 6.09375C16.5344 6.09375 14.7469 7.8 14.7469 9.95312C14.7469 12.1063 16.5344 13.8125 18.6875 13.8125ZM18.6875 7.9625C19.8656 7.9625 20.8 8.85625 20.8 9.99375C20.8 11.1312 19.8656 12.025 18.6875 12.025C17.5094 12.025 16.575 11.1312 16.575 9.99375C16.575 8.85625 17.5094 7.9625 18.6875 7.9625Z" fill="#3758F9"/>
<path d="M18.8906 14.2184H18.525C17.3063 14.2184 16.1281 14.584 15.1125 15.1934C14.0156 13.7309 12.2688 12.7559 10.3188 12.7559H6.70314C3.37189 12.7965 0.731262 15.4371 0.731262 18.7277V21.6527C0.731262 22.4246 1.34064 23.034 2.11251 23.034H23.9281C24.7 23.034 25.35 22.384 25.35 21.6121V20.6371C25.3094 17.1027 22.425 14.2184 18.8906 14.2184ZM2.55939 21.2059V18.7277C2.55939 16.4527 4.42814 14.584 6.70314 14.584H10.3188C12.5938 14.584 14.4625 16.4527 14.4625 18.7277V21.2059H2.55939ZM23.4813 21.2059H16.25V18.7277C16.25 18.0777 16.1281 17.4277 15.925 16.8184C16.6563 16.2902 17.55 16.0465 18.4844 16.0465H18.85C21.3688 16.0465 23.4406 18.1184 23.4406 20.6371V21.2059H23.4813Z" fill="#3758F9"/>
</svg>
