<svg width="16" height="14" viewBox="0 0 16 14" fill="none" xmlns="http://www.w3.org/2000/svg">
<path fill-rule="evenodd" clip-rule="evenodd" d="M14.0704 6.5375C14.6596 5.939 14.987 5.13094 14.9804 4.29109C14.9738 3.45124 14.6339 2.64839 14.0354 2.05917C13.7391 1.76741 13.3881 1.53689 13.0027 1.38075C12.6173 1.22461 12.2048 1.14592 11.789 1.14917C10.9491 1.15574 10.1463 1.49566 9.55708 2.09417C9.39708 2.25417 9.19374 2.45056 8.94708 2.68333L8.26124 3.32917L7.57541 2.68333C7.32819 2.45 7.12458 2.25361 6.96458 2.09417C6.37071 1.50031 5.56526 1.16668 4.72541 1.16668C3.88556 1.16668 3.08011 1.50031 2.48624 2.09417C1.26291 3.31833 1.24874 5.2975 2.44124 6.5275L8.26124 12.3475L14.0704 6.5375ZM1.77874 1.3875C2.16567 1.00047 2.62505 0.693461 3.13064 0.483998C3.63624 0.274535 4.17814 0.166724 4.72541 0.166724C5.27268 0.166724 5.81458 0.274535 6.32018 0.483998C6.82577 0.693461 7.28515 1.00047 7.67208 1.3875C7.82374 1.53972 8.02013 1.72917 8.26124 1.95583C8.50124 1.72917 8.69763 1.53945 8.85041 1.38667C9.62584 0.599306 10.6823 0.15223 11.7873 0.143791C12.8924 0.135352 13.9555 0.566241 14.7429 1.34167C15.5303 2.11709 15.9773 3.17354 15.9858 4.2786C15.9942 5.38366 15.5633 6.44681 14.7879 7.23417L8.85041 13.1725C8.69414 13.3287 8.48221 13.4165 8.26124 13.4165C8.04027 13.4165 7.82835 13.3287 7.67208 13.1725L1.73291 7.23333C0.971278 6.44783 0.54917 5.39428 0.557745 4.30019C0.566321 3.20611 1.00489 2.1593 1.77874 1.38583V1.3875Z" fill="#1478A3"/>
</svg>
