<svg width="30" height="31" viewBox="0 0 30 31" fill="none" xmlns="http://www.w3.org/2000/svg">
<g id="icon / jam-icons / outline &#38; logos / bell">
<path id="Vector" d="M20.8325 17.7275L20 16.9825V10.5C20 9.17392 19.4732 7.90215 18.5355 6.96447C17.5979 6.02678 16.3261 5.5 15 5.5C13.6739 5.5 12.4022 6.02678 11.4645 6.96447C10.5268 7.90215 10 9.17392 10 10.5V16.9825L9.16751 17.7275C7.95944 18.8056 7.07484 20.1983 6.61251 21.75H23.3875C22.9252 20.1983 22.0406 18.8056 20.8325 17.7275ZM18.75 24.25C18.75 25.2446 18.3549 26.1984 17.6517 26.9017C16.9484 27.6049 15.9946 28 15 28C14.0054 28 13.0516 27.6049 12.3484 26.9017C11.6451 26.1984 11.25 25.2446 11.25 24.25H3.75001C3.74831 22.6669 4.08155 21.1014 4.72786 19.6563C5.37416 18.2111 6.3189 16.9191 7.50001 15.865V10.5C7.50001 8.51088 8.29018 6.60322 9.69671 5.1967C11.1032 3.79018 13.0109 3 15 3C16.9891 3 18.8968 3.79018 20.3033 5.1967C21.7098 6.60322 22.5 8.51088 22.5 10.5V15.865C23.6811 16.9191 24.6259 18.2111 25.2722 19.6563C25.9185 21.1014 26.2517 22.6669 26.25 24.25H18.75ZM15 25.5C15.3315 25.5 15.6495 25.3683 15.8839 25.1339C16.1183 24.8995 16.25 24.5815 16.25 24.25H13.75C13.75 24.5815 13.8817 24.8995 14.1161 25.1339C14.3505 25.3683 14.6685 25.5 15 25.5Z" fill="#181D17"/>
</g>
</svg>
